<?xml version="1.0" encoding="UTF-8"?>
<!DOCTYPE svg PUBLIC "-//W3C//DTD SVG 1.1//EN" "http://www.w3.org/Graphics/SVG/1.1/DTD/svg11.dtd">
<!-- Creator: CorelDRAW X8 -->
<svg xmlns="http://www.w3.org/2000/svg" xml:space="preserve" width="326px" height="426px" version="1.1" style="shape-rendering:geometricPrecision; text-rendering:geometricPrecision; image-rendering:optimizeQuality; fill-rule:evenodd; clip-rule:evenodd"
viewBox="0 0 12647 16531"
 xmlns:xlink="http://www.w3.org/1999/xlink">
 <defs>
  <style type="text/css">
   <![CDATA[
    .fil0 {fill:#F61E1E;fill-rule:nonzero}
   ]]>
  </style>
 </defs>
 <g id="Слой_x0020_1">
  <metadata id="CorelCorpID_0Corel-Layer"/>
  <g id="_314525110624">
   <path class="fil0" d="M6626 524l2858 4950 0 0 3163 5477 -12647 0 3162 -5477 1 0 3160 -5474 303 524zm2253 5299l-2556 -4426 -2555 4426 0 2 -2555 4424 10220 0 -2554 -4424 0 -2z"/>
   <path class="fil0" d="M6626 3117l1735 3006 1 -1 2039 3533 -8156 0 2040 -3533 0 1 2038 -3530 303 524zm1130 3355l-1433 -2482 -1433 2482 0 1 -1431 2480 5729 0 -1432 -2480 0 -1z"/>
  </g>
  <path class="fil0" d="M4362 15252l436 0 0 464 -436 0 0 765 -573 0 0 -765 -1441 0 -14 -353 1439 -2329 589 0 0 2218zm-1467 0l894 0 0 -1406 -13 -2 -55 132 -826 1276z"/>
  <path id="1" class="fil0" d="M7442 15248c0,397 -103,711 -307,939 -205,229 -478,343 -820,344 -343,-1 -617,-116 -823,-345 -207,-230 -311,-542 -311,-938l0 -978c0,-396 103,-709 308,-939 205,-231 478,-346 821,-346 342,0 616,115 822,346 206,230 310,543 310,939l0 978zm-575 -1066c0,-230 -50,-410 -147,-540 -98,-130 -235,-196 -410,-196 -177,0 -314,66 -410,196 -96,130 -143,310 -143,540l0 1148c0,234 48,415 146,546 97,130 235,195 412,195 177,0 312,-65 408,-194 96,-129 144,-312 144,-547l0 -1148z"/>
  <path id="2" class="fil0" d="M9872 15252l435 0 0 464 -435 0 0 765 -573 0 0 -765 -1441 0 -15 -353 1440 -2329 589 0 0 2218zm-1467 0l894 0 0 -1406 -14 -2 -55 132 -825 1276z"/>
 </g>
</svg>
