<?xml version="1.0" encoding="UTF-8"?>
<!DOCTYPE svg PUBLIC "-//W3C//DTD SVG 1.1//EN" "http://www.w3.org/Graphics/SVG/1.1/DTD/svg11.dtd">
<!-- Creator: CorelDRAW X8 -->
<svg xmlns="http://www.w3.org/2000/svg" xml:space="preserve" width="143px" height="49px" version="1.1" style="shape-rendering:geometricPrecision; text-rendering:geometricPrecision; image-rendering:optimizeQuality; fill-rule:evenodd; clip-rule:evenodd"
viewBox="0 0 3542 1202"
 xmlns:xlink="http://www.w3.org/1999/xlink">
 <defs>
  <style type="text/css">
   <![CDATA[
    .str0 {stroke:white;stroke-width:22.2798}
    .fil2 {fill:none;fill-rule:nonzero}
    .fil0 {fill:#FEFEFE;fill-rule:nonzero}
    .fil1 {fill:black;fill-rule:nonzero}
   ]]>
  </style>
    <mask id="id0">
  <linearGradient id="id1" gradientUnits="userSpaceOnUse" x1="1189.55" y1="-2382" x2="2001.95" y2="649.927">
   <stop offset="0" style="stop-opacity:1; stop-color:white"/>
   <stop offset="1" style="stop-opacity:0; stop-color:white"/>
  </linearGradient>
     <rect style="fill:url(#id1)" x="1057" y="-18" width="2503" height="1238"/>
    </mask>
 </defs>
 <g id="Слой_x0020_1">
  <metadata id="CorelCorpID_0Corel-Layer"/>
  <g id="_169900479696">
   <path class="fil0" d="M3412 11l-3283 0c-65,0 -118,53 -118,118l0 944c0,65 53,118 118,118l3283 0c66,0 118,-53 118,-118l0 -944c0,-65 -52,-118 -118,-118z"/>
   <g>
    <path class="fil1" d="M450 315l68 0c4,0 8,-4 8,-8 0,-4 -4,-8 -8,-8l-68 0c-4,0 -8,4 -8,8 0,4 4,8 8,8z"/>
    <path class="fil1" d="M484 903c-23,0 -41,18 -41,41 0,23 18,42 41,42 23,0 41,-19 41,-42 0,-23 -18,-41 -41,-41z"/>
    <polygon class="fil1" points="303,886 665,886 665,359 303,359 "/>
    <g>
     <path class="fil1" d="M2513 303c0,-13 -10,-19 -34,-19 -7,0 -11,0 -19,1l0 38 16 0c21,0 37,-5 37,-20z"/>
     <path class="fil1" d="M1422 689c-16,0 -31,6 -45,17 -13,11 -22,25 -26,43 -2,8 -3,15 -3,20l0 50c0,22 7,40 20,55 14,15 31,23 52,23 25,0 45,-10 59,-29 14,-20 21,-45 21,-77 0,-29 -7,-53 -20,-72 -14,-20 -34,-30 -58,-30z"/>
     <path class="fil1" d="M1751 689c-16,0 -31,6 -44,17 -14,11 -22,25 -26,43 -2,8 -3,15 -3,20l0 50c0,22 6,40 20,55 13,15 30,23 52,23 25,0 44,-10 58,-29 14,-20 21,-45 21,-77 0,-29 -6,-53 -19,-72 -15,-20 -34,-30 -59,-30z"/>
     <path class="fil1" d="M2477 344l-17 0 0 44c8,1 12,1 19,1 19,0 39,-4 39,-23 0,-17 -16,-22 -41,-22z"/>
     <path class="fil1" d="M1203 284c-24,0 -39,22 -39,53 0,30 16,52 39,52 23,0 38,-24 38,-53 0,-30 -15,-52 -38,-52z"/>
     <path class="fil1" d="M2637 685c-26,0 -47,12 -61,36 -12,19 -18,43 -18,72 0,27 6,51 18,70 15,24 35,36 61,36 25,0 45,-12 59,-36 13,-20 19,-44 19,-72 0,-27 -6,-51 -18,-70 -14,-24 -34,-36 -60,-36z"/>
     <path class="fil1" d="M2218 389c23,0 38,-24 38,-53 0,-30 -15,-52 -38,-52 -23,0 -38,22 -38,53 0,30 15,52 38,52z"/>
     <path class="fil1" d="M3412 11l-3283 0c-65,0 -118,53 -118,118l0 944c0,65 53,118 118,118l3283 0c66,0 118,-53 118,-118l0 -944c0,-65 -52,-118 -118,-118zm-1192 249l0 0c42,0 70,31 70,75 0,46 -29,78 -73,78 -43,0 -70,-32 -70,-75 0,-46 28,-78 73,-78zm-826 0l0 0c13,0 25,2 35,7l-6 25c-9,-4 -18,-6 -29,-6 -29,0 -46,21 -46,50 0,31 19,51 46,51 10,0 20,-2 30,-6l4 24c-10,5 -24,8 -40,8 -45,0 -74,-30 -74,-75 0,-45 31,-78 80,-78zm-468 124l0 0c8,-15 16,-32 21,-48 6,-22 9,-48 9,-78l0 -52 119 0 0 178 19 0 -2 77 -24 0 -2 -51 -128 0 -2 51 -24 0 -2 -76 16 -1zm-228 541l0 0c0,38 -30,69 -68,69l-292 0c-38,0 -68,-31 -68,-69l0 -649c0,-38 30,-68 68,-68l292 0c38,0 68,30 68,68l0 649zm472 17l0 0 -39 -122 -135 0 -37 122 -69 0 134 -415 82 0 135 415 -71 0zm32 -529l0 0c-43,0 -71,-32 -71,-75 0,-46 29,-78 73,-78 42,0 71,31 71,75 0,46 -29,78 -73,78zm324 497l0 0c-25,26 -56,39 -92,39 -40,0 -69,-14 -86,-43l0 158 -66 0 0 -323c0,-32 -1,-65 -3,-99l59 0 3 48 2 0c22,-36 55,-54 101,-54 35,0 65,14 88,42 24,28 36,65 36,111 0,51 -14,91 -42,121zm53 -620l0 0 -44 0 0 120 -32 0 0 -120 -45 0 0 -27 121 0 0 27zm61 -27l0 0 27 82c3,7 6,17 9,29l1 0c2,-7 4,-16 8,-29l25 -82 34 0 -37 102c-17,48 -34,79 -50,93 -11,10 -23,16 -35,18l-8 -27c17,-5 33,-18 42,-37l3 -7 -2 -7 -53 -135 36 0zm215 647l0 0c-24,26 -55,39 -92,39 -40,0 -68,-14 -85,-43l0 158 -67 0 0 -323c0,-32 -1,-65 -3,-99l59 0 4 48 1 0c22,-36 56,-54 101,-54 35,0 65,14 89,42 23,28 35,65 35,111 0,51 -14,91 -42,121zm57 -500l0 0 -32 0 0 -120 -60 0 0 120 -33 0 0 -147 125 0 0 147zm92 0l0 0 -33 0 0 -147 33 0 0 58 61 0 0 -58 33 0 0 147 -33 0 0 -64 -61 0 0 64zm233 502l0 0c-28,24 -65,36 -114,36 -45,0 -80,-8 -107,-26l15 -55c29,17 61,26 96,26 25,0 45,-6 59,-17 14,-11 21,-26 21,-46 0,-16 -6,-30 -18,-42 -11,-12 -30,-22 -57,-32 -73,-27 -109,-67 -109,-119 0,-34 13,-62 38,-84 26,-22 60,-33 103,-33 37,0 69,7 94,20l-17 54c-23,-12 -50,-19 -80,-19 -23,0 -42,6 -55,17 -11,11 -16,23 -16,38 0,16 6,30 19,41 11,10 31,20 60,32 36,14 62,31 79,51 17,19 25,43 25,72 0,35 -12,64 -36,86zm234 -220l0 0 -73 0 0 146c0,37 13,55 39,55 12,0 22,0 29,-3l2 51c-13,5 -30,7 -52,7 -26,0 -46,-8 -61,-24 -15,-16 -23,-43 -23,-80l0 -152 -43 0 0 -50 43 0 0 -54 66 -20 0 74 73 0 0 50zm-43 -282l0 0 0 -146c12,-2 32,-3 50,-3 24,0 67,3 67,38 0,17 -15,28 -30,31l1 1c21,4 36,15 36,36 0,41 -52,45 -80,45 -16,0 -33,-1 -44,-2zm317 493l0 0c-28,31 -65,46 -110,46 -44,0 -79,-15 -105,-44 -27,-29 -39,-66 -39,-110 0,-47 13,-85 40,-114 27,-30 63,-45 109,-45 44,0 79,15 106,44 25,28 38,65 38,110 0,46 -13,84 -39,113zm239 -202l0 0c-6,-1 -13,-2 -20,-2 -24,0 -42,9 -55,27 -11,15 -16,35 -16,59l0 157 -67 0 0 -205c0,-35 -1,-66 -2,-95l58 0 3 58 1 0c7,-20 19,-36 34,-48 15,-10 31,-16 48,-16 6,0 12,1 16,2l0 63zm286 107l0 0 -200 0c1,30 10,53 29,68 17,14 38,21 65,21 30,0 57,-4 81,-14l10 46c-28,13 -62,19 -100,19 -47,0 -83,-14 -110,-41 -26,-28 -40,-64 -40,-110 0,-46 13,-83 38,-113 26,-32 60,-48 104,-48 44,0 76,16 99,48 17,25 26,57 26,94 0,12 -1,22 -2,30z"/>
     <path class="fil1" d="M3142 682c-21,0 -39,9 -53,27 -11,14 -17,32 -19,52l138 0c1,-20 -3,-37 -12,-51 -12,-19 -30,-28 -54,-28z"/>
     <path class="fil1" d="M1042 234l-56 0 0 34c0,28 -3,53 -10,75 -5,14 -11,29 -17,40l83 0 0 -149z"/>
     <path class="fil1" d="M1063 582l-1 0c-4,18 -11,44 -20,78l-34 109 111 0 -35 -109c-4,-11 -11,-37 -21,-78z"/>
    </g>
   </g>
   <path class="fil0" style="mask:url(#id0)" d="M3412 11l-2326 0 316 1180 2010 0c66,0 118,-53 118,-118l0 -944c0,-65 -52,-118 -118,-118z"/>
   <path class="fil2 str0" d="M3412 11l-3283 0c-65,0 -118,53 -118,118l0 944c0,65 53,118 118,118l3283 0c66,0 118,-53 118,-118l0 -944c0,-65 -52,-118 -118,-118z"/>
  </g>
 </g>
</svg>
