<?xml version="1.0" encoding="UTF-8"?>
<!DOCTYPE svg PUBLIC "-//W3C//DTD SVG 1.1//EN" "http://www.w3.org/Graphics/SVG/1.1/DTD/svg11.dtd">
<!-- Creator: CorelDRAW X8 -->
<svg xmlns="http://www.w3.org/2000/svg" xml:space="preserve" width="393px" height="438px" version="1.1" style="shape-rendering:geometricPrecision; text-rendering:geometricPrecision; image-rendering:optimizeQuality; fill-rule:evenodd; clip-rule:evenodd"
viewBox="0 0 6327 7065"
 xmlns:xlink="http://www.w3.org/1999/xlink">
 <defs>
  <style type="text/css">
   <![CDATA[
    .fil0 {fill:white;fill-rule:nonzero}
   ]]>
  </style>
 </defs>
 <g id="Слой_x0020_1">
  <metadata id="CorelCorpID_0Corel-Layer"/>
  <g id="_535566412544">
   <path class="fil0" d="M3315 262l1429 2477 1 -1 1582 2740 -6327 0 1582 -2740 0 1 1581 -2739 152 262zm1127 2651l-1279 -2214 -1278 2214 0 1 -1278 2213 5113 0 -1278 -2213 0 -1z"/>
   <path class="fil0" d="M3315 1559l868 1504 0 0 1020 1767 -4080 0 1020 -1767 1 0 1019 -1766 152 262zm565 1678l-717 -1241 -717 1241 0 1 -716 1241 2866 0 -716 -1241 0 -1z"/>
  </g>
  <path class="fil0" d="M688 6092l-688 0 0 136 268 0 0 837 153 0 0 -837 267 0 0 -136zm617 973l166 0 -422 -1018 -424 1018 168 0 83 -209 346 0 83 209zm-374 -345l118 -297 118 297 -236 0zm1324 58c-10,13 -21,24 -33,36 -62,63 -146,99 -236,99 -89,0 -173,-36 -236,-99 -62,-63 -98,-147 -98,-236 0,-89 36,-173 98,-236 63,-64 147,-98 236,-98 79,0 153,26 212,75l0 -180c-7,-3 -15,-7 -21,-9 -61,-26 -125,-38 -191,-38 -65,0 -129,12 -188,38 -59,23 -110,59 -155,103 -45,45 -80,97 -105,155 -25,60 -38,125 -38,190 0,66 13,130 38,189 25,59 60,110 105,155 45,44 96,80 155,105 59,25 123,38 188,38 66,0 130,-13 191,-38 27,-12 53,-27 78,-42l0 -207zm839 -686l-152 0 0 415 -388 0 0 -415 -152 0 0 973 152 0 0 -420 388 0 0 420 152 0 0 -973zm931 973l-428 -505 356 -468 -191 0 -312 401 0 -401 -152 0 0 973 152 0 0 -441 385 441 190 0zm281 0l0 -973 -152 0 0 973 152 0zm354 -92c0,-50 -42,-92 -92,-92 -51,0 -92,42 -92,92 0,51 41,92 92,92 50,0 92,-41 92,-92zm906 92l-429 -505 357 -468 -192 0 -312 401 0 -401 -152 0 0 973 152 0 0 -441 386 441 190 0zm761 -505l-336 0 0 138 183 0 0 179c-1,0 -1,0 -1,0 -17,9 -35,16 -54,21 0,0 -1,1 -2,1 -2,0 -4,0 -6,2 -1,0 -2,0 -3,1 -2,0 -3,0 -4,0 -2,1 -4,1 -6,1 -1,2 -1,2 -2,2 -9,1 -20,4 -29,5 -1,0 -1,0 -3,0 -1,0 -4,0 -5,0 -1,0 -3,0 -3,1 -2,0 -4,0 -6,0 -1,0 -3,0 -4,0 -1,0 -3,0 -4,0 -1,0 -4,0 -5,0 -2,2 -3,2 -4,2 -3,0 -7,0 -9,0 -90,0 -173,-36 -236,-99 -41,-40 -70,-90 -86,-145 -6,-24 -10,-49 -11,-74 -2,-6 -2,-12 -2,-17 0,-6 0,-12 2,-18 0,-4 0,-9 0,-15 1,-13 4,-26 6,-39 0,-1 0,-1 1,-3 8,-35 21,-68 41,-99 0,-1 1,-4 3,-5 2,-4 5,-8 8,-12 0,0 1,-2 2,-3 5,-8 11,-16 17,-23 2,0 2,-2 2,-2 5,-6 11,-12 17,-17 17,-18 36,-34 57,-47 3,-1 6,-3 7,-4 51,-31 110,-47 172,-47 2,0 6,0 9,0 0,0 1,0 2,0 2,0 4,0 6,0 1,0 2,0 4,0 1,0 2,1 4,1 2,0 5,0 7,0 2,0 3,0 4,0 2,1 4,1 6,1 1,0 1,0 2,0 2,0 4,2 5,2 2,0 2,0 3,0 5,1 12,1 17,2 1,2 3,2 3,2 2,0 4,0 5,1 1,0 3,0 4,0 1,1 3,1 4,1 20,6 40,13 60,23l0 0c24,11 46,25 66,42l0 -180 0 0 0 0 0 0c0,0 0,0 -2,0 -2,-1 -5,-3 -7,-4 -2,0 -2,-1 -2,-1 -52,-24 -107,-37 -164,-41 0,0 0,0 0,0 -4,-1 -8,-1 -11,-1 0,0 0,0 -2,0 -2,0 -6,0 -10,0 0,0 -2,0 -2,0 -4,0 -7,0 -11,0 0,0 0,0 0,0 -66,0 -130,12 -189,38 -59,23 -110,59 -155,103 -44,45 -80,97 -105,155 -22,53 -34,109 -38,165 0,8 0,17 0,25 0,16 1,33 3,49 4,48 17,95 35,140 25,59 61,110 105,155 32,33 68,60 108,81 14,9 30,17 47,24 6,2 13,5 19,7 6,2 10,4 15,6 0,0 0,0 1,0 49,17 101,25 154,25 0,0 0,0 0,0 4,0 7,0 11,0 0,0 2,0 2,0 4,0 8,0 10,0 2,0 2,0 2,0 61,-4 119,-17 174,-42 1,-2 1,-2 1,-2 3,-1 7,-2 9,-4 0,0 0,0 0,0 3,-1 6,-2 7,-3 1,0 1,0 3,0 1,-2 1,-2 2,-3 3,0 5,-1 7,-3 1,-1 2,-1 4,-2 2,-2 4,-2 6,-3 2,-1 3,-1 4,-3 2,-1 3,-1 4,-2 3,-2 4,-3 5,-4 3,0 4,-1 6,-3 1,0 2,-1 4,-2 1,0 3,-2 5,-3 1,-1 1,-1 2,-1l0 0c0,0 0,0 0,0l35 -24 0 -263 0 0 0 -138z"/>
 </g>
</svg>
