<?xml version="1.0" encoding="utf-8"?>
<svg xmlns="http://www.w3.org/2000/svg"
	xmlns:xlink="http://www.w3.org/1999/xlink"
	width="24px" height="17px" viewBox="0 0 24 17">
<g><path fillRule="evenodd" d="M-0 17C-0 17-0 14-0 14-0 14 24 14 24 14 24 14 24 17 24 17 24 17-0 17-0 17ZM-0 7C-0 7 24 7 24 7 24 7 24 10 24 10 24 10-0 10-0 10-0 10-0 7-0 7ZM-0-0C-0-0 24-0 24-0 24-0 24 3 24 3 24 3-0 3-0 3-0 3-0-0-0-0Z" fill="rgb(0,0,0)"/><path fillRule="evenodd" d="M 24 17C 24 17-0 17-0 17-0 17-0 14-0 14-0 14 24 14 24 14 24 14 24 17 24 17 24 17 24 17 24 17ZM 24 10C 24 10-0 10-0 10-0 10-0 7-0 7-0 7 24 7 24 7 24 7 24 10 24 10 24 10 24 10 24 10ZM 24 3C 24 3-0 3-0 3-0 3-0 0-0 0-0 0 24 0 24 0 24 0 24 3 24 3 24 3 24 3 24 3Z" fill="rgb(255,255,255)"/></g></svg>