<?xml version="1.0" encoding="UTF-8"?>
<!DOCTYPE svg PUBLIC "-//W3C//DTD SVG 1.1//EN" "http://www.w3.org/Graphics/SVG/1.1/DTD/svg11.dtd">
<!-- Creator: CorelDRAW X8 -->
<svg xmlns="http://www.w3.org/2000/svg" xml:space="preserve" width="130px" height="130px" version="1.1" style="shape-rendering:geometricPrecision; text-rendering:geometricPrecision; image-rendering:optimizeQuality; fill-rule:evenodd; clip-rule:evenodd"
viewBox="0 0 1178 1178"
 xmlns:xlink="http://www.w3.org/1999/xlink">
 <defs>
  <style type="text/css">
   <![CDATA[
    .fil0 {fill:#F81A1A}
    .fil1 {fill:white;fill-rule:nonzero}
   ]]>
  </style>
 </defs>
 <g id="Слой_x0020_1">
  <metadata id="CorelCorpID_0Corel-Layer"/>
  <g id="_882568914416">
   <rect class="fil0" transform="matrix(3.27905E-15 0.12381 -0.12381 3.27905E-15 1177.97 0.00526431)" width="9514" height="9514" rx="2379" ry="2379"/>
   <g>
    <path class="fil1" d="M609 217l186 322 0 0 206 356 -824 0 206 -356 0 0 206 -356 20 34zm146 345l-166 -289 -166 289 0 0 -167 288 666 0 -167 -288 0 0z"/>
    <path class="fil1" d="M609 385l113 196 0 0 132 230 -530 0 132 -230 0 0 133 -230 20 34zm73 219l-93 -162 -93 162 0 0 -93 161 372 0 -93 -161 0 0z"/>
   </g>
  </g>
 </g>
</svg>
