<?xml version="1.0" encoding="UTF-8"?>
<!DOCTYPE svg PUBLIC "-//W3C//DTD SVG 1.1//EN" "http://www.w3.org/Graphics/SVG/1.1/DTD/svg11.dtd">
<!-- Creator: CorelDRAW X8 -->
<svg xmlns="http://www.w3.org/2000/svg" xml:space="preserve" width="160px" height="28px" version="1.1" style="shape-rendering:geometricPrecision; text-rendering:geometricPrecision; image-rendering:optimizeQuality; fill-rule:evenodd; clip-rule:evenodd"
viewBox="0 0 2093 370"
 xmlns:xlink="http://www.w3.org/1999/xlink">
 <defs>
  <style type="text/css">
   <![CDATA[
    .fil0 {fill:#f71616 ;fill-rule:nonzero}
   ]]>
  </style>
 </defs>
 <g id="Слой_x0020_1">
  <metadata id="CorelCorpID_0Corel-Layer"/>
  <g id="_169907566944">
   <g>
    <path class="fil0" d="M224 18l96 167 0 0 107 185 -427 0 107 -185 0 0 106 -185 11 18zm76 179l-87 -150 -86 150 0 0 -86 149 345 0 -86 -149 0 0z"/>
    <path class="fil0" d="M224 105l58 102 0 0 69 119 -275 0 69 -119 0 0 68 -119 11 17zm38 114l-49 -84 -48 84 0 0 -48 83 193 0 -48 -83 0 0z"/>
   </g>
   <polygon class="fil0" points="703,70 534,70 534,104 600,104 600,310 637,310 637,104 703,104 "/>
   <path id="1" class="fil0" d="M855 310l41 0 -104 -251 -104 251 41 0 21 -51 85 0 20 51zm-92 -85l29 -73 29 73 -58 0z"/>
   <path id="2" class="fil0" d="M1090 240c-3,3 -6,6 -9,9 -15,15 -36,24 -58,24 -22,0 -42,-9 -58,-24 -15,-16 -24,-37 -24,-59 0,-22 9,-42 24,-58 16,-16 36,-24 58,-24 20,0 38,6 52,18l0 -44c-1,-1 -3,-2 -5,-2 -15,-7 -31,-10 -47,-10 -16,0 -32,3 -46,10 -15,6 -27,14 -38,25 -11,11 -20,24 -26,39 -6,14 -10,30 -10,46 0,17 4,32 10,47 6,14 15,27 26,38 11,11 23,20 38,26 14,6 30,9 46,9 16,0 32,-3 47,-9 7,-3 13,-7 20,-10l0 -51z"/>
   <polygon id="3" class="fil0" points="1296,70 1259,70 1259,173 1163,173 1163,70 1126,70 1126,310 1163,310 1163,207 1259,207 1259,310 1296,310 "/>
   <polygon id="4" class="fil0" points="1526,310 1420,186 1508,70 1461,70 1384,169 1384,70 1346,70 1346,310 1384,310 1384,202 1479,310 "/>
   <polygon id="5" class="fil0" points="1595,310 1595,70 1557,70 1557,310 "/>
   <path id="6" class="fil0" d="M1682 288c0,-13 -10,-23 -22,-23 -13,0 -23,10 -23,23 0,12 10,22 23,22 12,0 22,-10 22,-22z"/>
   <polygon id="7" class="fil0" points="1906,310 1800,186 1888,70 1841,70 1764,169 1764,70 1726,70 1726,310 1764,310 1764,202 1859,310 "/>
   <path id="8" class="fil0" d="M2093 186l-83 0 0 34 46 0 0 44c-1,0 -1,0 -1,0 -4,2 -9,4 -13,5 0,0 0,1 -1,1 0,0 -1,0 -1,0 0,0 -1,0 -1,0 0,0 -1,0 -1,0 0,1 -1,1 -1,1 -1,0 -1,0 -1,0 -2,0 -5,1 -7,1 0,0 0,0 -1,0 0,0 -1,0 -1,0 0,0 -1,0 -1,0 0,0 -1,0 -1,0 -1,0 -1,0 -1,0 0,0 -1,0 -1,0 0,0 -1,0 -1,0 -1,1 -1,1 -1,1 -1,0 -2,0 -3,0 -22,0 -42,-9 -58,-24 -10,-10 -17,-23 -21,-36 -1,-6 -2,-12 -3,-18 0,-2 0,-3 0,-5 0,-1 0,-3 0,-4 0,-1 0,-2 0,-4 1,-3 1,-6 2,-9 0,-1 0,-1 0,-1 2,-9 5,-17 10,-25 0,0 1,-1 1,-1 1,-1 1,-2 2,-3 0,0 0,0 0,0 2,-2 3,-4 5,-6 0,0 0,-1 0,-1 1,-1 3,-3 4,-4 4,-4 9,-8 14,-11 1,-1 2,-1 2,-1 13,-8 27,-12 42,-12 1,0 2,0 3,0 0,0 0,0 0,0 1,0 1,0 2,0 0,0 0,0 1,0 0,0 0,0 0,0 1,0 2,0 2,0 1,0 1,0 1,0 1,1 1,1 2,1 0,0 0,0 0,0 1,0 1,0 2,0 0,0 0,0 0,0 2,0 3,0 4,1 1,0 1,0 1,0 1,0 1,0 1,0 1,0 1,0 1,0 1,1 1,1 1,1 5,1 10,3 15,5l0 0c6,3 12,6 16,10l0 -44 0 0 0 0 0 0c0,0 0,0 0,0 -1,0 -1,-1 -2,-1 0,0 0,0 0,0 -13,-6 -27,-9 -41,-10 0,0 0,0 0,0 -1,-1 -2,-1 -3,-1 0,0 0,0 0,0 0,0 -1,0 -2,0 0,0 -1,0 -1,0 -1,0 -2,0 -3,0 0,0 0,0 0,0 -16,0 -32,3 -46,10 -15,6 -27,14 -38,25 -11,11 -20,24 -26,39 -6,12 -9,26 -10,40 0,2 0,4 0,6 0,4 1,8 1,12 1,12 4,24 9,35 6,14 15,27 26,38 7,8 16,15 26,20 4,2 8,4 12,6 1,1 3,1 5,2 1,0 2,1 3,1 0,0 0,0 1,0 11,4 24,6 37,6 0,0 0,0 0,0 1,0 2,0 3,0 0,0 1,0 1,0 1,0 2,0 2,0 0,0 0,0 0,0 16,-1 30,-4 43,-10 1,0 1,0 1,0 0,-1 1,-1 2,-1 0,0 0,0 0,0 1,-1 1,-1 2,-1 0,0 0,0 0,0 1,-1 1,-1 1,-1 1,0 1,0 2,-1 0,0 0,0 1,0 0,-1 1,-1 1,-1 0,0 1,0 1,-1 0,0 1,0 1,0 1,0 1,-1 1,-1 1,0 1,0 2,-1 0,0 0,0 1,0 0,0 1,-1 1,-1 0,0 0,0 1,0l0 0c0,0 0,0 0,0l8 -6 0 -65 0 0 0 -34z"/>
  </g>
 </g>
</svg>
