<?xml version="1.0" encoding="UTF-8"?>
<!DOCTYPE svg PUBLIC "-//W3C//DTD SVG 1.1//EN" "http://www.w3.org/Graphics/SVG/1.1/DTD/svg11.dtd">
<!-- Creator: CorelDRAW X8 -->
<svg xmlns="http://www.w3.org/2000/svg" xml:space="preserve" width="6529px" height="1589px" version="1.1" style="shape-rendering:geometricPrecision; text-rendering:geometricPrecision; image-rendering:optimizeQuality; fill-rule:evenodd; clip-rule:evenodd"
viewBox="0 0 220712 53730"
 xmlns:xlink="http://www.w3.org/1999/xlink">
 <defs>
  <style type="text/css">
   <![CDATA[
    .fil0 {fill:#DC0000;fill-rule:nonzero}
   ]]>
  </style>
 </defs>
 <g id="Слой_x0020_1">
  <metadata id="CorelCorpID_0Corel-Layer"/>
  <path class="fil0" d="M220331 40078c-566,302 -1158,592 -1777,855 -632,263 -1290,527 -1987,750 -698,237 -1395,421 -2066,540 -685,118 -1356,171 -2014,171 -842,0 -1658,-66 -2435,-197 -763,-145 -1513,-343 -2224,-632 -723,-276 -1395,-619 -2000,-1040 -618,-421 -1171,-908 -1684,-1474 -501,-552 -948,-1184 -1343,-1895 -395,-697 -724,-1461 -1000,-2277 -263,-829 -461,-1724 -605,-2684 -132,-961 -198,-1987 -198,-3067 0,-2000 250,-3803 750,-5395 514,-1619 1277,-3014 2303,-4212l14 -13c1026,-1184 2250,-2079 3658,-2671 1408,-593 3001,-895 4777,-895 606,0 1224,39 1856,131 645,79 1276,211 1908,382l0 0 0 0c645,171 1303,408 2001,698 684,289 1381,644 2118,1052 211,106 329,329 329,553l0 0 0 3817c0,355 -289,644 -645,644l-250 0c-171,0 -329,-79 -447,-184 -132,-131 -303,-263 -487,-421 -184,-145 -421,-329 -697,-526 -264,-211 -527,-395 -777,-553 -250,-171 -500,-316 -737,-448l-26 -13c-290,-144 -606,-276 -948,-408 -329,-131 -697,-237 -1079,-342 -368,-105 -776,-184 -1211,-237 -434,-52 -895,-66 -1382,-66 -1066,0 -2013,185 -2842,580 -816,394 -1540,987 -2158,1776 0,13 -14,26 -27,26 -605,803 -1066,1738 -1368,2830 -329,1119 -487,2382 -487,3816 0,1514 171,2843 500,4001 329,1132 816,2093 1461,2909l13 0 0 0c631,789 1382,1381 2250,1776 869,395 1869,592 2987,592 435,0 856,-26 1277,-79 408,-39 829,-118 1237,-210 421,-105 816,-211 1185,-342 223,-79 447,-158 658,-250l0 -4856 -4922 0c-356,0 -632,-290 -632,-632l0 -2869c0,-355 276,-645 632,-645l8277 0c356,0 645,290 645,645l0 10410c0,263 -158,487 -381,579l0 0zm-141078 -19556l-6765 0 0 20740c0,356 -276,632 -631,632l-2764 0c-355,0 -632,-276 -632,-632l0 -20740 -6764 0c-356,0 -632,-290 -632,-645l0 -2869c0,-355 276,-632 632,-632l17556 0c355,0 644,277 644,632l0 2869c0,355 -289,645 -644,645zm17411 21372l-2935 0c-303,0 -553,-197 -619,-487l-1882 -6251 -8014 0 -1882 6291c-79,276 -342,447 -605,447l0 0 -2790 0c-356,0 -632,-276 -632,-632 0,-79 13,-158 39,-237l7515 -24201c79,-277 329,-448 605,-448l0 0 3672 0c303,0 553,211 619,487l7514 24215c105,329 -92,684 -421,790 -66,26 -118,26 -184,26l0 0 0 0zm-6686 -10805l-2750 -9067 -2777 9067 5527 0zm26044 9002c-223,118 -460,237 -684,355 -210,106 -421,224 -645,342l-26 14c-211,118 -461,237 -737,355 -276,132 -579,250 -934,382l0 0 0 0c-316,118 -619,210 -935,302 -316,92 -645,185 -987,250l-39 14c-342,78 -711,131 -1079,171 -395,39 -803,52 -1211,52 -777,0 -1527,-66 -2264,-197 -724,-132 -1408,-329 -2066,-579 -658,-277 -1277,-619 -1856,-1027 -579,-421 -1105,-908 -1592,-1474l-13 -13c-461,-553 -882,-1171 -1250,-1869 -369,-684 -685,-1447 -948,-2276l-13 -27c-250,-829 -434,-1711 -566,-2658 -132,-961 -197,-1974 -197,-3053 0,-1014 65,-1987 184,-2909 131,-934 316,-1803 566,-2632l0 0 0 0c250,-816 566,-1579 934,-2276 369,-711 790,-1356 1277,-1922 0,-13 13,-26 26,-39 461,-553 974,-1040 1527,-1461 566,-434 1184,-790 1855,-1092l0 0 0 0c671,-290 1369,-514 2106,-658 737,-158 1500,-224 2303,-224 579,0 1171,39 1763,118 579,92 1158,211 1738,382 579,158 1197,395 1842,684 645,290 1303,632 2000,1040 198,118 316,329 316,540l0 3842c0,356 -289,632 -645,632l-210 0c-184,0 -356,-79 -474,-211 -526,-513 -1066,-960 -1592,-1342 -527,-368 -1053,-671 -1580,-908 -513,-237 -1052,-408 -1605,-526 -553,-119 -1119,-171 -1724,-171 -487,0 -948,39 -1369,131 -421,79 -816,211 -1197,395 -369,171 -711,395 -1053,671 -329,276 -658,605 -961,987l13 0c-289,369 -552,790 -776,1263 -237,474 -435,1001 -606,1593 0,13 -13,39 -13,53 -158,565 -289,1184 -368,1855 -92,684 -132,1421 -132,2211 0,829 53,1592 145,2277 92,697 224,1329 408,1908 184,566 395,1092 645,1566 237,461 487,869 776,1211 290,368 606,671 948,947 342,264 697,474 1079,645l0 0c395,171 803,303 1211,395 408,79 829,132 1276,132 619,0 1211,-66 1790,-185 579,-131 1132,-315 1671,-552 527,-250 1053,-553 1566,-921 514,-382 1001,-816 1474,-1316 132,-132 303,-198 474,-198l0 0 184 0c356,0 645,277 645,632l0 3777c0,263 -158,487 -394,592l-1 0zm19451 1803l-2763 0c-343,0 -632,-276 -632,-632l0 -11239 -9002 0 0 11239c0,356 -289,632 -631,632l-2764 0c-355,0 -645,-276 -645,-632l0 -24254c0,-355 290,-632 645,-632l2764 0c342,0 631,277 631,632l0 8870 9002 0 0 -8870c0,-355 289,-632 632,-632l2763 0c356,0 632,277 632,632l0 24254c0,356 -276,632 -632,632zm22215 0l-3567 0c-223,0 -421,-105 -526,-276l-7659 -10121 -1422 1764 0 8001c0,356 -276,632 -631,632l-2764 0c-342,0 -632,-276 -632,-632l0 -24254c0,-355 290,-632 632,-632l2764 0c355,0 631,277 631,632l0 10804 8897 -11199c131,-158 316,-237 500,-237l0 0 3343 0c355,0 644,277 644,632 0,171 -65,316 -171,434l-8883 10989 9344 12450c211,276 158,684 -118,894 -119,79 -251,119 -382,119l0 0 0 0zm10383 0l-8172 0c-356,0 -632,-276 -632,-632l0 -2474c0,-342 276,-632 632,-632l2066 0 0 -18042 -2066 0c-356,0 -632,-290 -632,-632l0 -2474c0,-355 276,-632 632,-632l8172 0c342,0 632,277 632,632l0 2474c0,342 -290,632 -632,632l-2066 0 0 18042 2066 0c342,0 632,290 632,632l0 2474c0,356 -290,632 -632,632zm8752 0l-3330 0c-342,0 -631,-276 -631,-632l0 -4632c0,-355 289,-645 631,-645l3330 0c355,0 645,289 645,645l0 4632c0,356 -290,632 -645,632zm22912 0l-3567 0c-223,0 -421,-105 -539,-276l-7646 -10121 -1422 1764 0 8001c0,356 -276,632 -631,632l-2764 0c-355,0 -632,-276 -632,-632l0 -24254c0,-355 277,-632 632,-632l2764 0c355,0 631,277 631,632l0 10804 8897 -11199c131,-158 316,-237 500,-237l0 0 3343 0c355,0 645,277 645,632 0,171 -66,316 -172,434l-8883 10989 9344 12450c211,276 158,684 -118,894 -119,79 -250,119 -382,119l0 0 0 0z"/>
  <path class="fil0" d="M32514 2566l14015 24299 0 0 15523 26865 -62052 0 15524 -26865 0 0 15502 -26865 1488 2566 0 0zm11061 26002l-12549 -21712 -12527 21712 0 0 -12548 21712 50151 0 -12527 -21712 0 0 0 0z"/>
  <path class="fil0" d="M32514 15287l8516 14747 0 0 10005 17335 -40017 0 10004 -17335 0 0 10004 -17313 1488 2566 0 0zm5541 16451l-7029 -12161 -7029 12161 0 21 -7028 12161 28115 0 -7029 -12161 0 -21 0 0z"/>
 </g>
</svg>
