<?xml version="1.0" encoding="UTF-8"?>
<!DOCTYPE svg PUBLIC "-//W3C//DTD SVG 1.1//EN" "http://www.w3.org/Graphics/SVG/1.1/DTD/svg11.dtd">
<!-- Creator: CorelDRAW X8 -->
<svg xmlns="http://www.w3.org/2000/svg" xml:space="preserve" width="408px" height="457px" version="1.1" style="shape-rendering:geometricPrecision; text-rendering:geometricPrecision; image-rendering:optimizeQuality; fill-rule:evenodd; clip-rule:evenodd"
viewBox="0 0 1755 1967"
 xmlns:xlink="http://www.w3.org/1999/xlink">
 <defs>
  <style type="text/css">
   <![CDATA[
    .fil0 {fill:white;fill-rule:nonzero}
   ]]>
  </style>
 </defs>
 <g id="Слой_x0020_1">
  <metadata id="CorelCorpID_0Corel-Layer"/>
  <g id="_360976378624">
   <g>
    <path class="fil0" d="M920 73l396 687 0 0 439 760 -1755 0 439 -760 0 0 439 -760 42 73zm312 735l-354 -614 -355 614 0 0 -355 614 1419 0 -355 -614 0 0z"/>
    <path class="fil0" d="M920 433l240 417 0 0 283 490 -1131 0 283 -490 0 0 283 -490 42 73zm156 465l-198 -344 -199 344 0 0 -199 344 795 0 -199 -344 0 0z"/>
   </g>
   <polygon class="fil0" points="191,1697 0,1697 0,1735 74,1735 74,1967 117,1967 117,1735 191,1735 "/>
   <path id="1" class="fil0" d="M362 1967l46 0 -117 -282 -117 282 46 0 23 -58 96 0 23 58zm-104 -95l33 -83 33 83 -66 0z"/>
   <path id="2" class="fil0" d="M626 1888c-3,3 -6,6 -9,10 -18,17 -41,27 -66,27 -25,0 -48,-10 -65,-27 -18,-18 -28,-41 -28,-66 0,-25 10,-48 28,-65 17,-18 40,-28 65,-28 22,0 42,8 59,21l0 -50c-2,0 -4,-1 -6,-2 -17,-7 -35,-11 -53,-11 -18,0 -36,4 -52,11 -17,6 -31,16 -43,29 -13,12 -22,26 -29,42 -7,17 -11,35 -11,53 0,18 4,36 11,53 7,16 16,30 29,43 12,12 26,22 43,29 16,7 34,10 52,10 18,0 36,-3 53,-10 7,-4 15,-8 22,-12l0 -57z"/>
   <polygon id="3" class="fil0" points="858,1697 816,1697 816,1813 709,1813 709,1697 666,1697 666,1967 709,1967 709,1851 816,1851 816,1967 858,1967 "/>
   <polygon id="4" class="fil0" points="1117,1967 998,1827 1097,1697 1044,1697 957,1809 957,1697 915,1697 915,1967 957,1967 957,1845 1064,1967 "/>
   <polygon id="5" class="fil0" points="1195,1967 1195,1697 1152,1697 1152,1967 "/>
   <path id="6" class="fil0" d="M1293 1942c0,-14 -12,-26 -26,-26 -14,0 -25,12 -25,26 0,14 11,25 25,25 14,0 26,-11 26,-25z"/>
   <polygon id="7" class="fil0" points="1544,1967 1425,1827 1524,1697 1471,1697 1384,1809 1384,1697 1342,1697 1342,1967 1384,1967 1384,1845 1491,1967 "/>
   <path id="8" class="fil0" d="M1755 1827l-93 0 0 38 51 0 0 50c0,0 0,0 0,0 -5,3 -10,5 -15,6 0,0 -1,0 -1,0 0,0 -1,0 -2,1 0,0 0,0 -1,0 0,0 0,0 -1,0 0,0 -1,0 -1,0 -1,1 -1,1 -1,1 -2,0 -5,1 -8,1 0,0 0,0 -1,0 0,0 -1,0 -1,0 0,0 -1,0 -1,1 -1,0 -1,0 -2,0 0,0 0,0 -1,0 0,0 0,0 -1,0 0,0 -1,0 -1,0 -1,0 -1,0 -1,0 -1,0 -2,0 -3,0 -25,0 -48,-10 -65,-27 -12,-12 -20,-25 -24,-41 -2,-6 -3,-13 -3,-20 -1,-2 -1,-3 -1,-5 0,-2 0,-3 1,-5 0,-1 0,-2 0,-4 0,-4 1,-7 1,-11 0,0 0,0 1,-1 2,-9 6,-18 11,-27 0,-1 0,-1 1,-2 1,-1 1,-2 2,-3 0,0 0,0 1,-1 1,-2 3,-4 4,-6 1,0 1,-1 1,-1 1,-1 3,-3 5,-4 4,-5 10,-10 16,-13 0,-1 1,-1 1,-1 15,-9 31,-14 48,-14 1,0 2,0 3,0 0,0 0,0 0,0 1,0 1,0 2,0 0,0 1,0 1,0 0,0 1,1 1,1 1,0 1,0 2,0 1,0 1,0 1,0 1,0 1,0 2,0 0,0 0,0 0,0 1,0 2,1 2,1 0,0 0,0 1,0 1,0 3,0 4,0 1,1 1,1 1,1 1,0 1,0 2,0 0,0 0,0 1,0 0,0 0,0 1,0 5,2 11,4 16,7l0 0c7,3 13,6 19,11l0 -50 0 0 0 0 0 0c0,0 0,0 -1,0 0,0 -1,0 -2,-1 0,0 0,0 0,0 -15,-7 -30,-10 -46,-11 0,0 0,0 0,0 -1,-1 -2,-1 -3,-1 0,0 0,0 0,0 -1,0 -2,0 -3,0 0,0 -1,0 -1,0 -1,0 -2,0 -3,0 0,0 0,0 0,0 -18,0 -36,4 -52,11 -17,6 -31,16 -43,29 -13,12 -22,26 -29,42 -7,15 -10,31 -11,46 0,2 0,5 0,7 0,5 0,9 1,14 1,13 5,26 10,39 7,16 16,30 29,43 8,9 19,16 30,22 4,3 8,5 13,7 2,0 3,1 5,2 2,0 3,1 4,1 0,0 0,0 1,0 13,5 28,7 42,7 0,0 0,0 0,0 1,0 2,0 3,0 0,0 1,0 1,0 1,0 2,0 3,0 0,0 0,0 0,0 17,-1 33,-5 48,-11 1,-1 1,-1 1,-1 0,0 2,-1 2,-1 0,0 0,0 0,0 1,0 2,-1 2,-1 0,0 0,0 1,0 0,0 0,0 1,-1 0,0 1,0 1,0 1,-1 1,-1 1,-1 1,-1 2,-1 2,-1 1,0 1,0 1,-1 1,0 1,0 1,0 1,-1 2,-1 2,-1 1,0 1,-1 1,-1 1,0 1,-1 1,-1 1,0 2,0 2,-1 0,0 0,0 1,0l0 0c0,0 0,0 0,0l9 -7 0 -73 0 0 0 -38z"/>
  </g>
 </g>
</svg>
