<?xml version="1.0" encoding="UTF-8"?>
<!DOCTYPE svg PUBLIC "-//W3C//DTD SVG 1.1//EN" "http://www.w3.org/Graphics/SVG/1.1/DTD/svg11.dtd">
<!-- Creator: CorelDRAW X8 -->
<svg xmlns="http://www.w3.org/2000/svg" xml:space="preserve" width="191.651mm" height="41.6926mm" version="1.1" style="shape-rendering:geometricPrecision; text-rendering:geometricPrecision; image-rendering:optimizeQuality; fill-rule:evenodd; clip-rule:evenodd"
viewBox="0 0 19165 4169"
 xmlns:xlink="http://www.w3.org/1999/xlink">
 <defs>
  <style type="text/css">
   <![CDATA[
    .str0 {stroke:#2B2A29;stroke-width:7.62}
    .fil0 {fill:none}
    .fil3 {fill:none;fill-rule:nonzero}
    .fil4 {fill:#F81A1A}
    .fil2 {fill:#2B2A29;fill-rule:nonzero}
    .fil1 {fill:#F71616;fill-opacity:0.980392}
   ]]>
  </style>
 </defs>
 <g id="Слой_x0020_1">
  <metadata id="CorelCorpID_0Corel-Layer"/>
  <rect class="fil0" width="19165" height="4169"/>
  <g id="_1217526944">
   <path class="fil1" d="M18029 2571l-171 0 -60 -58c211,-246 339,-565 339,-913 0,-774 -628,-1402 -1402,-1402 -775,0 -1403,628 -1403,1402 0,775 628,1402 1403,1402 347,0 666,-127 912,-338l58 60 0 171 1079 1076 321 -321 -1076 -1079zm-1294 0c-538,0 -971,-433 -971,-971 0,-537 433,-970 971,-970 537,0 970,433 970,970 0,537 -433,971 -970,971z"/>
   <g>
    <polygon class="fil2" points="672,1040 640,1040 640,213 92,213 92,1040 60,1040 60,181 672,181 "/>
    <path id="1" class="fil2" d="M843 708c0,-47 6,-89 20,-128 14,-39 33,-73 57,-101 25,-28 54,-50 88,-65 35,-16 72,-24 114,-24 41,0 79,8 114,24 34,15 63,37 88,65 24,28 43,62 57,101 13,39 20,81 20,128l0 25c0,47 -7,90 -20,128 -13,40 -32,73 -57,101 -24,28 -54,50 -88,66 -34,16 -72,23 -113,23 -42,0 -80,-7 -114,-23 -35,-16 -64,-38 -89,-66 -24,-28 -43,-61 -57,-101 -14,-38 -20,-81 -20,-128l0 -25zm32 25c0,38 5,75 16,109 12,35 28,65 49,92 21,26 47,47 78,62 30,16 65,23 105,23 39,0 73,-7 104,-23 30,-15 56,-36 77,-62 21,-27 37,-57 48,-92 12,-34 17,-71 17,-109l0 -25c0,-37 -5,-73 -17,-107 -11,-35 -27,-65 -48,-92 -22,-26 -47,-47 -78,-63 -31,-16 -65,-24 -104,-24 -39,0 -74,8 -105,24 -30,16 -56,37 -77,63 -21,27 -37,57 -49,92 -11,34 -16,70 -16,107l0 25z"/>
    <path id="2" class="fil2" d="M1850 1040l0 -638 219 0c37,0 70,3 100,10 30,6 55,17 75,30 21,14 37,31 48,52 11,20 16,45 16,73 0,35 -11,66 -32,92 -22,27 -53,44 -94,53l1 0c22,3 42,8 61,18 19,9 35,20 48,34 14,13 25,29 33,47 7,17 11,36 11,56 0,29 -5,54 -17,75 -10,22 -26,40 -46,54 -20,15 -44,25 -72,33 -27,7 -58,11 -91,11l-260 0zm32 -307l0 275 228 0c30,0 57,-3 81,-9 24,-7 44,-15 61,-27 17,-12 30,-27 39,-44 9,-18 14,-38 14,-60 0,-21 -5,-39 -14,-55 -9,-17 -22,-31 -39,-43 -17,-12 -37,-21 -61,-28 -24,-6 -51,-9 -81,-9l-228 0zm0 -32l199 0c64,0 113,-12 146,-35 33,-22 49,-56 49,-101 0,-46 -17,-79 -52,-100 -36,-20 -87,-31 -155,-31l-187 0 0 267z"/>
    <path id="3" class="fil2" d="M2917 1040c-4,-15 -7,-33 -9,-54 -2,-21 -3,-42 -3,-63 -10,17 -23,33 -39,49 -16,16 -34,29 -55,41 -21,12 -44,21 -70,28 -26,7 -55,10 -87,10 -29,0 -57,-4 -81,-12 -24,-9 -44,-21 -62,-36 -17,-15 -30,-34 -39,-55 -9,-21 -14,-44 -14,-70 0,-28 7,-54 20,-78 14,-24 33,-45 58,-62 26,-17 56,-30 93,-40 37,-10 78,-15 124,-15l152 0 0 -93c0,-53 -16,-94 -50,-124 -34,-29 -82,-44 -144,-44 -29,0 -56,4 -81,12 -25,7 -46,18 -64,32 -19,14 -33,31 -44,50 -10,19 -15,39 -15,61l-32 -1c0,-25 6,-48 18,-71 11,-22 27,-42 48,-59 22,-17 46,-31 75,-41 29,-10 61,-15 95,-15 33,0 63,4 91,13 28,8 51,21 72,37 20,17 35,38 46,63 12,26 17,55 17,88l0 320c0,11 1,23 1,35 1,12 2,24 4,34 1,11 3,21 5,31 2,9 4,17 7,23l0 6 -37 0zm-263 -20c31,0 59,-3 85,-10 27,-8 50,-18 71,-31 21,-13 40,-30 56,-48 16,-19 29,-40 39,-63l0 -152 -151 0c-41,0 -78,4 -110,12 -33,8 -61,19 -83,34 -23,14 -41,32 -53,52 -12,20 -18,42 -18,66 0,20 4,38 12,55 8,16 19,31 34,44 14,13 32,23 52,30 20,7 42,11 66,11z"/>
    <polygon id="4" class="fil2" points="3174,402 3174,1008 3508,1008 3508,402 3541,402 3541,1008 3870,1008 3870,402 3902,402 3902,1040 3142,1040 3142,402 "/>
    <path id="5" class="fil2" d="M4311 1051c-39,0 -75,-7 -109,-23 -33,-16 -63,-38 -88,-66 -26,-28 -46,-61 -60,-100 -15,-39 -22,-81 -22,-128l0 -26c0,-46 7,-89 21,-128 14,-39 33,-73 58,-101 24,-28 52,-50 85,-65 32,-16 67,-24 104,-24 35,0 67,7 97,20 30,13 55,31 77,55 21,24 38,53 50,86 12,34 18,71 18,111l0 38 -478 0 0 8 0 26c0,40 6,77 19,112 12,35 30,65 52,91 22,26 48,46 78,61 31,15 63,22 98,22 18,0 36,-1 53,-4 17,-3 34,-7 49,-14 16,-7 31,-16 46,-27 14,-11 28,-25 42,-43l22 16c-11,16 -23,29 -37,42 -13,13 -29,23 -46,32 -18,10 -37,17 -59,22 -21,5 -44,7 -70,7zm-11 -629c-33,0 -62,6 -89,19 -27,12 -51,30 -71,52 -21,22 -37,48 -50,78 -13,30 -21,62 -24,97l444 0 0 -8c0,-32 -5,-62 -15,-91 -10,-29 -24,-54 -43,-76 -18,-22 -40,-39 -66,-52 -26,-13 -55,-19 -86,-19z"/>
    <polygon id="6" class="fil2" points="5029,991 5319,402 5357,402 5357,1040 5325,1040 5325,463 5042,1040 5017,1040 4728,449 4728,1040 4696,1040 4696,402 4739,402 "/>
    <path id="7" class="fil2" d="M5755 990l5 -12 220 -576 35 0 -283 744c-5,13 -12,28 -19,46 -7,17 -17,34 -29,49 -13,16 -28,29 -48,40 -19,11 -43,16 -72,16 -3,0 -7,0 -12,0 -4,0 -9,-1 -13,-1 -5,-1 -9,-2 -13,-2 -4,-1 -7,-2 -9,-3l-1 -30c3,0 6,1 11,2 4,0 8,1 12,2 4,0 8,1 12,1 3,0 6,0 8,0 20,0 37,-3 52,-10 15,-6 27,-15 38,-26 11,-11 20,-24 29,-40 8,-15 15,-32 22,-50l38 -104 -254 -634 35 0 236 588z"/>
    <path id="8" class="fil2" d="M6627 698c36,0 66,-4 91,-10 25,-6 45,-15 60,-26 16,-12 27,-26 34,-42 7,-17 11,-35 11,-55 0,-20 -4,-39 -11,-56 -7,-18 -18,-33 -34,-46 -16,-13 -36,-23 -61,-30 -24,-8 -54,-11 -89,-11 -26,0 -51,3 -74,10 -24,7 -45,17 -63,30 -18,12 -33,28 -43,46 -11,18 -16,38 -16,61l-33 0c0,-28 6,-52 19,-74 13,-22 29,-41 51,-56 21,-16 45,-28 73,-36 27,-9 56,-13 86,-13 35,0 67,4 95,12 28,7 52,18 72,34 19,15 34,33 45,55 10,22 15,48 15,76 0,16 -2,32 -8,46 -5,15 -13,29 -23,42 -10,12 -23,24 -38,33 -16,11 -34,19 -54,25 46,11 80,29 102,55 22,27 33,60 33,101 0,28 -6,54 -18,77 -11,22 -28,41 -48,57 -21,15 -46,27 -75,35 -30,9 -62,13 -97,13 -28,0 -57,-4 -85,-12 -29,-7 -54,-19 -77,-34 -23,-16 -42,-36 -57,-59 -14,-24 -22,-52 -22,-84l33 0c0,22 5,43 16,62 10,19 25,36 43,50 19,14 41,25 66,33 26,7 53,11 83,11 67,0 118,-13 153,-39 35,-27 52,-63 52,-109 0,-49 -17,-85 -52,-107 -34,-22 -86,-33 -155,-33l-86 0 0 -32 86 0z"/>
    <path id="9" class="fil2" d="M7448 1040c-5,-15 -8,-33 -9,-54 -2,-21 -3,-42 -3,-63 -11,17 -24,33 -39,49 -16,16 -34,29 -55,41 -21,12 -44,21 -70,28 -26,7 -55,10 -87,10 -30,0 -57,-4 -81,-12 -24,-9 -45,-21 -62,-36 -17,-15 -30,-34 -40,-55 -9,-21 -13,-44 -13,-70 0,-28 6,-54 20,-78 13,-24 32,-45 58,-62 25,-17 56,-30 93,-40 36,-10 77,-15 123,-15l153 0 0 -93c0,-53 -17,-94 -50,-124 -34,-29 -82,-44 -145,-44 -29,0 -56,4 -80,12 -25,7 -47,18 -65,32 -18,14 -32,31 -43,50 -10,19 -15,39 -15,61l-32 -1c0,-25 5,-48 17,-71 12,-22 28,-42 49,-59 21,-17 46,-31 75,-41 29,-10 60,-15 94,-15 33,0 64,4 92,13 27,8 51,21 71,37 20,17 36,38 47,63 11,26 17,55 17,88l0 320c0,11 0,23 1,35 1,12 2,24 3,34 2,11 3,21 5,31 2,9 5,17 7,23l0 6 -36 0zm-263 -20c30,0 59,-3 85,-10 26,-8 50,-18 71,-31 21,-13 39,-30 55,-48 16,-19 29,-40 40,-63l0 -152 -151 0c-41,0 -78,4 -111,12 -32,8 -60,19 -83,34 -23,14 -40,32 -52,52 -12,20 -19,42 -19,66 0,20 4,38 13,55 8,16 19,31 33,44 15,13 32,23 52,30 20,7 43,11 67,11z"/>
    <polygon id="10" class="fil2" points="8132,1040 8099,1040 8099,434 7705,434 7705,1040 7673,1040 7673,402 8132,402 "/>
    <path id="11" class="fil2" d="M8821 726c0,49 -5,94 -16,133 -11,40 -26,75 -47,103 -20,28 -45,51 -75,66 -30,16 -63,23 -101,23 -26,0 -50,-2 -72,-8 -23,-5 -43,-13 -61,-23 -18,-10 -34,-21 -48,-35 -15,-13 -27,-28 -37,-44l0 344 -31 0 0 -883 31 0 0 114c11,-19 23,-36 37,-52 14,-15 30,-28 48,-39 18,-11 38,-20 60,-26 22,-6 46,-9 72,-9 37,0 71,8 101,22 30,15 55,37 76,65 20,28 36,62 47,102 11,40 16,85 16,135l0 12zm-32 -12c0,-42 -4,-81 -13,-117 -8,-36 -21,-67 -38,-93 -17,-26 -39,-46 -65,-60 -26,-15 -57,-22 -92,-22 -34,0 -63,5 -87,15 -25,9 -46,22 -63,38 -17,15 -31,32 -42,51 -10,19 -19,38 -25,57l0 298c8,20 18,38 31,55 13,17 28,32 46,44 18,13 39,22 63,29 23,7 49,10 78,10 35,0 65,-7 91,-21 26,-15 48,-35 65,-61 17,-26 30,-57 38,-93 9,-36 13,-75 13,-118l0 -12z"/>
    <path id="12" class="fil2" d="M8946 708c0,-47 7,-89 21,-128 13,-39 32,-73 57,-101 24,-28 54,-50 88,-65 34,-16 72,-24 113,-24 42,0 80,8 114,24 34,15 64,37 88,65 24,28 44,62 57,101 14,39 20,81 20,128l0 25c0,47 -6,90 -20,128 -13,40 -32,73 -57,101 -24,28 -53,50 -88,66 -34,16 -72,23 -113,23 -42,0 -80,-7 -114,-23 -34,-16 -64,-38 -88,-66 -25,-28 -44,-61 -57,-101 -14,-38 -21,-81 -21,-128l0 -25zm32 25c0,38 6,75 17,109 11,35 27,65 48,92 22,26 47,47 78,62 31,16 66,23 105,23 39,0 74,-7 104,-23 31,-15 56,-36 77,-62 22,-27 38,-57 49,-92 11,-34 17,-71 17,-109l0 -25c0,-37 -6,-73 -17,-107 -11,-35 -28,-65 -49,-92 -21,-26 -47,-47 -78,-63 -30,-16 -65,-24 -104,-24 -39,0 -74,8 -104,24 -31,16 -57,37 -78,63 -21,27 -37,57 -48,92 -11,34 -17,70 -17,107l0 25z"/>
    <path id="13" class="fil2" d="M9875 1019c25,0 49,-3 73,-9 24,-7 45,-18 64,-31 19,-14 34,-32 46,-54 13,-22 20,-48 22,-79l32 0c-2,33 -9,62 -23,87 -13,25 -30,47 -51,65 -22,17 -47,30 -74,40 -28,9 -58,13 -89,13 -41,0 -78,-7 -110,-23 -33,-16 -60,-38 -82,-66 -23,-28 -39,-61 -51,-101 -12,-38 -17,-81 -17,-128l0 -25c0,-47 5,-89 17,-128 12,-39 28,-73 51,-101 22,-28 49,-50 81,-65 32,-16 69,-24 110,-24 31,0 60,5 88,14 28,10 53,24 75,42 21,19 39,42 52,70 14,28 21,60 23,96l-32 0c-2,-32 -8,-59 -20,-83 -12,-24 -27,-44 -46,-60 -19,-16 -40,-28 -64,-35 -24,-8 -50,-12 -76,-12 -39,0 -73,7 -101,22 -29,15 -53,36 -71,62 -19,26 -33,56 -42,91 -9,34 -14,72 -14,111l0 25c0,40 5,78 14,112 9,35 23,65 42,91 19,26 43,46 71,61 29,15 63,22 102,22z"/>
    <path id="14" class="fil2" d="M10467 990l4 -12 220 -576 35 0 -283 744c-5,13 -11,28 -19,46 -7,17 -17,34 -29,49 -13,16 -28,29 -48,40 -19,11 -43,16 -72,16 -3,0 -7,0 -12,0 -4,0 -9,-1 -13,-1 -5,-1 -9,-2 -13,-2 -4,-1 -7,-2 -9,-3l-1 -30c3,0 6,1 11,2 4,0 8,1 12,2 4,0 8,1 12,1 4,0 6,0 8,0 20,0 37,-3 52,-10 15,-6 27,-15 38,-26 11,-11 20,-24 29,-40 8,-15 15,-32 22,-50l38 -104 -254 -634 35 0 237 588z"/>
    <polygon id="15" class="fil2" points="11595,1040 11563,1040 11563,728 11169,728 11169,1040 11137,1040 11137,402 11169,402 11169,696 11563,696 11563,402 11595,402 "/>
    <polygon id="16" class="fil2" points="12224,402 12256,402 12256,1040 12224,1040 12224,458 11829,1040 11798,1040 11798,402 11829,402 11829,983 "/>
    <path id="17" class="fil2" d="M12884 1040l-31 0 0 -308c-13,6 -26,12 -42,17 -16,6 -31,11 -48,15 -16,5 -33,8 -50,11 -17,3 -32,4 -46,4 -41,0 -77,-3 -108,-10 -30,-7 -55,-20 -75,-37 -19,-18 -34,-43 -44,-74 -9,-30 -14,-70 -14,-118l0 -138 32 0 0 138c0,41 4,76 12,102 8,27 20,48 37,64 17,15 39,26 65,32 27,6 58,9 95,9 16,-1 33,-2 50,-5 18,-3 35,-6 52,-10 16,-5 32,-9 46,-14 15,-5 27,-11 38,-16l0 -300 31 0 0 638z"/>
    <path id="18" class="fil2" d="M13317 1051c-39,0 -76,-7 -109,-23 -34,-16 -64,-38 -89,-66 -26,-28 -45,-61 -60,-100 -15,-39 -22,-81 -22,-128l0 -26c0,-46 7,-89 21,-128 15,-39 34,-73 58,-101 24,-28 52,-50 85,-65 32,-16 67,-24 104,-24 35,0 68,7 97,20 30,13 55,31 77,55 21,24 38,53 50,86 12,34 18,71 18,111l0 38 -478 0 0 8 0 26c0,40 6,77 19,112 12,35 30,65 52,91 22,26 48,46 79,61 30,15 63,22 98,22 18,0 35,-1 52,-4 17,-3 34,-7 49,-14 16,-7 31,-16 46,-27 14,-11 28,-25 42,-43l22 16c-10,16 -23,29 -36,42 -14,13 -30,23 -47,32 -18,10 -37,17 -58,22 -21,5 -45,7 -70,7zm-12 -629c-32,0 -62,6 -89,19 -27,12 -50,30 -71,52 -20,22 -37,48 -50,78 -13,30 -21,62 -24,97l444 0 0 -8c0,-32 -5,-62 -15,-91 -10,-29 -24,-54 -42,-76 -19,-22 -41,-39 -67,-52 -25,-13 -54,-19 -86,-19z"/>
    <polygon id="19" class="fil2" points="14079,434 13727,434 13727,1040 13695,1040 13695,402 14079,402 "/>
    <path id="20" class="fil2" d="M14158 708c0,-47 7,-89 21,-128 13,-39 32,-73 57,-101 24,-28 54,-50 88,-65 34,-16 72,-24 113,-24 42,0 80,8 114,24 34,15 64,37 88,65 24,28 44,62 57,101 14,39 20,81 20,128l0 25c0,47 -6,90 -20,128 -13,40 -32,73 -56,101 -25,28 -54,50 -89,66 -34,16 -72,23 -113,23 -42,0 -80,-7 -114,-23 -34,-16 -64,-38 -88,-66 -25,-28 -44,-61 -57,-101 -14,-38 -21,-81 -21,-128l0 -25zm32 25c0,38 6,75 17,109 11,35 27,65 48,92 22,26 48,47 78,62 31,16 66,23 105,23 39,0 74,-7 104,-23 31,-15 56,-36 77,-62 22,-27 38,-57 49,-92 11,-34 17,-71 17,-109l0 -25c0,-37 -6,-73 -17,-107 -11,-35 -28,-65 -49,-92 -21,-26 -47,-47 -78,-63 -30,-16 -65,-24 -104,-24 -39,0 -74,8 -104,24 -31,16 -57,37 -78,63 -21,27 -37,57 -48,92 -11,34 -17,70 -17,107l0 25z"/>
    <polygon id="21" class="fil3 str0" points="672,1040 640,1040 640,213 92,213 92,1040 60,1040 60,181 672,181 "/>
    <path id="22" class="fil3 str0" d="M843 708c0,-47 6,-89 20,-128 14,-39 33,-73 57,-101 25,-28 54,-50 88,-65 35,-16 72,-24 114,-24 41,0 79,8 114,24 34,15 63,37 88,65 24,28 43,62 57,101 13,39 20,81 20,128l0 25c0,47 -7,90 -20,128 -13,40 -32,73 -57,101 -24,28 -54,50 -88,66 -34,16 -72,23 -113,23 -42,0 -80,-7 -114,-23 -35,-16 -64,-38 -89,-66 -24,-28 -43,-61 -57,-101 -14,-38 -20,-81 -20,-128l0 -25zm32 25c0,38 5,75 16,109 12,35 28,65 49,92 21,26 47,47 78,62 30,16 65,23 105,23 39,0 73,-7 104,-23 30,-15 56,-36 77,-62 21,-27 37,-57 48,-92 12,-34 17,-71 17,-109l0 -25c0,-37 -5,-73 -17,-107 -11,-35 -27,-65 -48,-92 -22,-26 -47,-47 -78,-63 -31,-16 -65,-24 -104,-24 -39,0 -74,8 -105,24 -30,16 -56,37 -77,63 -21,27 -37,57 -49,92 -11,34 -16,70 -16,107l0 25z"/>
    <path id="23" class="fil3 str0" d="M1850 1040l0 -638 219 0c37,0 70,3 100,10 30,6 55,17 75,30 21,14 37,31 48,52 11,20 16,45 16,73 0,35 -11,66 -32,92 -22,27 -53,44 -94,53l1 0c22,3 42,8 61,18 19,9 35,20 48,34 14,13 25,29 33,47 7,17 11,36 11,56 0,29 -5,54 -17,75 -10,22 -26,40 -46,54 -20,15 -44,25 -72,33 -27,7 -58,11 -91,11l-260 0zm32 -307l0 275 228 0c30,0 57,-3 81,-9 24,-7 44,-15 61,-27 17,-12 30,-27 39,-44 9,-18 14,-38 14,-60 0,-21 -5,-39 -14,-55 -9,-17 -22,-31 -39,-43 -17,-12 -37,-21 -61,-28 -24,-6 -51,-9 -81,-9l-228 0zm0 -32l199 0c64,0 113,-12 146,-35 33,-22 49,-56 49,-101 0,-46 -17,-79 -52,-100 -36,-20 -87,-31 -155,-31l-187 0 0 267z"/>
    <path id="24" class="fil3 str0" d="M2917 1040c-4,-15 -7,-33 -9,-54 -2,-21 -3,-42 -3,-63 -10,17 -23,33 -39,49 -16,16 -34,29 -55,41 -21,12 -44,21 -70,28 -26,7 -55,10 -87,10 -29,0 -57,-4 -81,-12 -24,-9 -44,-21 -62,-36 -17,-15 -30,-34 -39,-55 -9,-21 -14,-44 -14,-70 0,-28 7,-54 20,-78 14,-24 33,-45 58,-62 26,-17 56,-30 93,-40 37,-10 78,-15 124,-15l152 0 0 -93c0,-53 -16,-94 -50,-124 -34,-29 -82,-44 -144,-44 -29,0 -56,4 -81,12 -25,7 -46,18 -64,32 -19,14 -33,31 -44,50 -10,19 -15,39 -15,61l-32 -1c0,-25 6,-48 18,-71 11,-22 27,-42 48,-59 22,-17 46,-31 75,-41 29,-10 61,-15 95,-15 33,0 63,4 91,13 28,8 51,21 72,37 20,17 35,38 46,63 12,26 17,55 17,88l0 320c0,11 1,23 1,35 1,12 2,24 4,34 1,11 3,21 5,31 2,9 4,17 7,23l0 6 -37 0zm-263 -20c31,0 59,-3 85,-10 27,-8 50,-18 71,-31 21,-13 40,-30 56,-48 16,-19 29,-40 39,-63l0 -152 -151 0c-41,0 -78,4 -110,12 -33,8 -61,19 -83,34 -23,14 -41,32 -53,52 -12,20 -18,42 -18,66 0,20 4,38 12,55 8,16 19,31 34,44 14,13 32,23 52,30 20,7 42,11 66,11z"/>
    <polygon id="25" class="fil3 str0" points="3174,402 3174,1008 3508,1008 3508,402 3541,402 3541,1008 3870,1008 3870,402 3902,402 3902,1040 3142,1040 3142,402 "/>
    <path id="26" class="fil3 str0" d="M4311 1051c-39,0 -75,-7 -109,-23 -33,-16 -63,-38 -88,-66 -26,-28 -46,-61 -60,-100 -15,-39 -22,-81 -22,-128l0 -26c0,-46 7,-89 21,-128 14,-39 33,-73 58,-101 24,-28 52,-50 85,-65 32,-16 67,-24 104,-24 35,0 67,7 97,20 30,13 55,31 77,55 21,24 38,53 50,86 12,34 18,71 18,111l0 38 -478 0 0 8 0 26c0,40 6,77 19,112 12,35 30,65 52,91 22,26 48,46 78,61 31,15 63,22 98,22 18,0 36,-1 53,-4 17,-3 34,-7 49,-14 16,-7 31,-16 46,-27 14,-11 28,-25 42,-43l22 16c-11,16 -23,29 -37,42 -13,13 -29,23 -46,32 -18,10 -37,17 -59,22 -21,5 -44,7 -70,7zm-11 -629c-33,0 -62,6 -89,19 -27,12 -51,30 -71,52 -21,22 -37,48 -50,78 -13,30 -21,62 -24,97l444 0 0 -8c0,-32 -5,-62 -15,-91 -10,-29 -24,-54 -43,-76 -18,-22 -40,-39 -66,-52 -26,-13 -55,-19 -86,-19z"/>
    <polygon id="27" class="fil3 str0" points="5029,991 5319,402 5357,402 5357,1040 5325,1040 5325,463 5042,1040 5017,1040 4728,449 4728,1040 4696,1040 4696,402 4739,402 "/>
    <path id="28" class="fil3 str0" d="M5755 990l5 -12 220 -576 35 0 -283 744c-5,13 -12,28 -19,46 -7,17 -17,34 -29,49 -13,16 -28,29 -48,40 -19,11 -43,16 -72,16 -3,0 -7,0 -12,0 -4,0 -9,-1 -13,-1 -5,-1 -9,-2 -13,-2 -4,-1 -7,-2 -9,-3l-1 -30c3,0 6,1 11,2 4,0 8,1 12,2 4,0 8,1 12,1 3,0 6,0 8,0 20,0 37,-3 52,-10 15,-6 27,-15 38,-26 11,-11 20,-24 29,-40 8,-15 15,-32 22,-50l38 -104 -254 -634 35 0 236 588z"/>
    <path id="29" class="fil3 str0" d="M6627 698c36,0 66,-4 91,-10 25,-6 45,-15 60,-26 16,-12 27,-26 34,-42 7,-17 11,-35 11,-55 0,-20 -4,-39 -11,-56 -7,-18 -18,-33 -34,-46 -16,-13 -36,-23 -61,-30 -24,-8 -54,-11 -89,-11 -26,0 -51,3 -74,10 -24,7 -45,17 -63,30 -18,12 -33,28 -43,46 -11,18 -16,38 -16,61l-33 0c0,-28 6,-52 19,-74 13,-22 29,-41 51,-56 21,-16 45,-28 73,-36 27,-9 56,-13 86,-13 35,0 67,4 95,12 28,7 52,18 72,34 19,15 34,33 45,55 10,22 15,48 15,76 0,16 -2,32 -8,46 -5,15 -13,29 -23,42 -10,12 -23,24 -38,33 -16,11 -34,19 -54,25 46,11 80,29 102,55 22,27 33,60 33,101 0,28 -6,54 -18,77 -11,22 -28,41 -48,57 -21,15 -46,27 -75,35 -30,9 -62,13 -97,13 -28,0 -57,-4 -85,-12 -29,-7 -54,-19 -77,-34 -23,-16 -42,-36 -57,-59 -14,-24 -22,-52 -22,-84l33 0c0,22 5,43 16,62 10,19 25,36 43,50 19,14 41,25 66,33 26,7 53,11 83,11 67,0 118,-13 153,-39 35,-27 52,-63 52,-109 0,-49 -17,-85 -52,-107 -34,-22 -86,-33 -155,-33l-86 0 0 -32 86 0z"/>
    <path id="30" class="fil3 str0" d="M7448 1040c-5,-15 -8,-33 -9,-54 -2,-21 -3,-42 -3,-63 -11,17 -24,33 -39,49 -16,16 -34,29 -55,41 -21,12 -44,21 -70,28 -26,7 -55,10 -87,10 -30,0 -57,-4 -81,-12 -24,-9 -45,-21 -62,-36 -17,-15 -30,-34 -40,-55 -9,-21 -13,-44 -13,-70 0,-28 6,-54 20,-78 13,-24 32,-45 58,-62 25,-17 56,-30 93,-40 36,-10 77,-15 123,-15l153 0 0 -93c0,-53 -17,-94 -50,-124 -34,-29 -82,-44 -145,-44 -29,0 -56,4 -80,12 -25,7 -47,18 -65,32 -18,14 -32,31 -43,50 -10,19 -15,39 -15,61l-32 -1c0,-25 5,-48 17,-71 12,-22 28,-42 49,-59 21,-17 46,-31 75,-41 29,-10 60,-15 94,-15 33,0 64,4 92,13 27,8 51,21 71,37 20,17 36,38 47,63 11,26 17,55 17,88l0 320c0,11 0,23 1,35 1,12 2,24 3,34 2,11 3,21 5,31 2,9 5,17 7,23l0 6 -36 0zm-263 -20c30,0 59,-3 85,-10 26,-8 50,-18 71,-31 21,-13 39,-30 55,-48 16,-19 29,-40 40,-63l0 -152 -151 0c-41,0 -78,4 -111,12 -32,8 -60,19 -83,34 -23,14 -40,32 -52,52 -12,20 -19,42 -19,66 0,20 4,38 13,55 8,16 19,31 33,44 15,13 32,23 52,30 20,7 43,11 67,11z"/>
    <polygon id="31" class="fil3 str0" points="8132,1040 8099,1040 8099,434 7705,434 7705,1040 7673,1040 7673,402 8132,402 "/>
    <path id="32" class="fil3 str0" d="M8821 726c0,49 -5,94 -16,133 -11,40 -26,75 -47,103 -20,28 -45,51 -75,66 -30,16 -63,23 -101,23 -26,0 -50,-2 -72,-8 -23,-5 -43,-13 -61,-23 -18,-10 -34,-21 -48,-35 -15,-13 -27,-28 -37,-44l0 344 -31 0 0 -883 31 0 0 114c11,-19 23,-36 37,-52 14,-15 30,-28 48,-39 18,-11 38,-20 60,-26 22,-6 46,-9 72,-9 37,0 71,8 101,22 30,15 55,37 76,65 20,28 36,62 47,102 11,40 16,85 16,135l0 12zm-32 -12c0,-42 -4,-81 -13,-117 -8,-36 -21,-67 -38,-93 -17,-26 -39,-46 -65,-60 -26,-15 -57,-22 -92,-22 -34,0 -63,5 -87,15 -25,9 -46,22 -63,38 -17,15 -31,32 -42,51 -10,19 -19,38 -25,57l0 298c8,20 18,38 31,55 13,17 28,32 46,44 18,13 39,22 63,29 23,7 49,10 78,10 35,0 65,-7 91,-21 26,-15 48,-35 65,-61 17,-26 30,-57 38,-93 9,-36 13,-75 13,-118l0 -12z"/>
    <path id="33" class="fil3 str0" d="M8946 708c0,-47 7,-89 21,-128 13,-39 32,-73 57,-101 24,-28 54,-50 88,-65 34,-16 72,-24 113,-24 42,0 80,8 114,24 34,15 64,37 88,65 24,28 44,62 57,101 14,39 20,81 20,128l0 25c0,47 -6,90 -20,128 -13,40 -32,73 -57,101 -24,28 -53,50 -88,66 -34,16 -72,23 -113,23 -42,0 -80,-7 -114,-23 -34,-16 -64,-38 -88,-66 -25,-28 -44,-61 -57,-101 -14,-38 -21,-81 -21,-128l0 -25zm32 25c0,38 6,75 17,109 11,35 27,65 48,92 22,26 47,47 78,62 31,16 66,23 105,23 39,0 74,-7 104,-23 31,-15 56,-36 77,-62 22,-27 38,-57 49,-92 11,-34 17,-71 17,-109l0 -25c0,-37 -6,-73 -17,-107 -11,-35 -28,-65 -49,-92 -21,-26 -47,-47 -78,-63 -30,-16 -65,-24 -104,-24 -39,0 -74,8 -104,24 -31,16 -57,37 -78,63 -21,27 -37,57 -48,92 -11,34 -17,70 -17,107l0 25z"/>
    <path id="34" class="fil3 str0" d="M9875 1019c25,0 49,-3 73,-9 24,-7 45,-18 64,-31 19,-14 34,-32 46,-54 13,-22 20,-48 22,-79l32 0c-2,33 -9,62 -23,87 -13,25 -30,47 -51,65 -22,17 -47,30 -74,40 -28,9 -58,13 -89,13 -41,0 -78,-7 -110,-23 -33,-16 -60,-38 -82,-66 -23,-28 -39,-61 -51,-101 -12,-38 -17,-81 -17,-128l0 -25c0,-47 5,-89 17,-128 12,-39 28,-73 51,-101 22,-28 49,-50 81,-65 32,-16 69,-24 110,-24 31,0 60,5 88,14 28,10 53,24 75,42 21,19 39,42 52,70 14,28 21,60 23,96l-32 0c-2,-32 -8,-59 -20,-83 -12,-24 -27,-44 -46,-60 -19,-16 -40,-28 -64,-35 -24,-8 -50,-12 -76,-12 -39,0 -73,7 -101,22 -29,15 -53,36 -71,62 -19,26 -33,56 -42,91 -9,34 -14,72 -14,111l0 25c0,40 5,78 14,112 9,35 23,65 42,91 19,26 43,46 71,61 29,15 63,22 102,22z"/>
    <path id="35" class="fil3 str0" d="M10467 990l4 -12 220 -576 35 0 -283 744c-5,13 -11,28 -19,46 -7,17 -17,34 -29,49 -13,16 -28,29 -48,40 -19,11 -43,16 -72,16 -3,0 -7,0 -12,0 -4,0 -9,-1 -13,-1 -5,-1 -9,-2 -13,-2 -4,-1 -7,-2 -9,-3l-1 -30c3,0 6,1 11,2 4,0 8,1 12,2 4,0 8,1 12,1 4,0 6,0 8,0 20,0 37,-3 52,-10 15,-6 27,-15 38,-26 11,-11 20,-24 29,-40 8,-15 15,-32 22,-50l38 -104 -254 -634 35 0 237 588z"/>
    <polygon id="36" class="fil3 str0" points="11595,1040 11563,1040 11563,728 11169,728 11169,1040 11137,1040 11137,402 11169,402 11169,696 11563,696 11563,402 11595,402 "/>
    <polygon id="37" class="fil3 str0" points="12224,402 12256,402 12256,1040 12224,1040 12224,458 11829,1040 11798,1040 11798,402 11829,402 11829,983 "/>
    <path id="38" class="fil3 str0" d="M12884 1040l-31 0 0 -308c-13,6 -26,12 -42,17 -16,6 -31,11 -48,15 -16,5 -33,8 -50,11 -17,3 -32,4 -46,4 -41,0 -77,-3 -108,-10 -30,-7 -55,-20 -75,-37 -19,-18 -34,-43 -44,-74 -9,-30 -14,-70 -14,-118l0 -138 32 0 0 138c0,41 4,76 12,102 8,27 20,48 37,64 17,15 39,26 65,32 27,6 58,9 95,9 16,-1 33,-2 50,-5 18,-3 35,-6 52,-10 16,-5 32,-9 46,-14 15,-5 27,-11 38,-16l0 -300 31 0 0 638z"/>
    <path id="39" class="fil3 str0" d="M13317 1051c-39,0 -76,-7 -109,-23 -34,-16 -64,-38 -89,-66 -26,-28 -45,-61 -60,-100 -15,-39 -22,-81 -22,-128l0 -26c0,-46 7,-89 21,-128 15,-39 34,-73 58,-101 24,-28 52,-50 85,-65 32,-16 67,-24 104,-24 35,0 68,7 97,20 30,13 55,31 77,55 21,24 38,53 50,86 12,34 18,71 18,111l0 38 -478 0 0 8 0 26c0,40 6,77 19,112 12,35 30,65 52,91 22,26 48,46 79,61 30,15 63,22 98,22 18,0 35,-1 52,-4 17,-3 34,-7 49,-14 16,-7 31,-16 46,-27 14,-11 28,-25 42,-43l22 16c-10,16 -23,29 -36,42 -14,13 -30,23 -47,32 -18,10 -37,17 -58,22 -21,5 -45,7 -70,7zm-12 -629c-32,0 -62,6 -89,19 -27,12 -50,30 -71,52 -20,22 -37,48 -50,78 -13,30 -21,62 -24,97l444 0 0 -8c0,-32 -5,-62 -15,-91 -10,-29 -24,-54 -42,-76 -19,-22 -41,-39 -67,-52 -25,-13 -54,-19 -86,-19z"/>
    <polygon id="40" class="fil3 str0" points="14079,434 13727,434 13727,1040 13695,1040 13695,402 14079,402 "/>
    <path id="41" class="fil3 str0" d="M14158 708c0,-47 7,-89 21,-128 13,-39 32,-73 57,-101 24,-28 54,-50 88,-65 34,-16 72,-24 113,-24 42,0 80,8 114,24 34,15 64,37 88,65 24,28 44,62 57,101 14,39 20,81 20,128l0 25c0,47 -6,90 -20,128 -13,40 -32,73 -56,101 -25,28 -54,50 -89,66 -34,16 -72,23 -113,23 -42,0 -80,-7 -114,-23 -34,-16 -64,-38 -88,-66 -25,-28 -44,-61 -57,-101 -14,-38 -21,-81 -21,-128l0 -25zm32 25c0,38 6,75 17,109 11,35 27,65 48,92 22,26 48,47 78,62 31,16 66,23 105,23 39,0 74,-7 104,-23 31,-15 56,-36 77,-62 22,-27 38,-57 49,-92 11,-34 17,-71 17,-109l0 -25c0,-37 -6,-73 -17,-107 -11,-35 -28,-65 -49,-92 -21,-26 -47,-47 -78,-63 -30,-16 -65,-24 -104,-24 -39,0 -74,8 -104,24 -31,16 -57,37 -78,63 -21,27 -37,57 -48,92 -11,34 -17,70 -17,107l0 25z"/>
    <polygon class="fil2" points="1193,3525 1113,3525 1113,2754 139,2754 139,3525 60,3525 60,1948 139,1948 139,2675 1113,2675 1113,1948 1193,1948 "/>
    <path id="1" class="fil2" d="M2260 3554c-96,0 -186,-20 -269,-59 -84,-39 -157,-93 -220,-162 -62,-70 -112,-152 -148,-248 -36,-96 -54,-201 -54,-315l0 -65c0,-114 18,-219 53,-316 35,-97 82,-180 142,-250 59,-69 130,-123 210,-162 80,-39 165,-58 257,-58 87,0 167,16 241,49 73,32 136,78 189,137 53,60 94,130 124,213 30,83 45,174 45,274l0 92 -1182 0 0 21 0 65c0,98 15,190 47,276 31,86 74,161 128,224 56,64 120,114 195,151 75,37 156,55 242,55 44,0 88,-3 130,-10 43,-7 83,-18 122,-35 39,-16 76,-38 112,-66 36,-28 71,-63 104,-106l55 40c-26,38 -56,72 -90,103 -34,31 -73,58 -116,80 -43,23 -91,40 -144,52 -52,13 -110,20 -173,20zm-29 -1556c-80,0 -153,15 -220,46 -66,31 -124,74 -175,129 -50,55 -92,119 -123,193 -32,74 -52,153 -61,239l1099 0 0 -19c0,-79 -12,-154 -37,-225 -25,-71 -60,-134 -105,-188 -45,-54 -100,-97 -164,-128 -64,-32 -136,-47 -214,-47z"/>
    <polygon id="2" class="fil2" points="5044,3525 4964,3525 4964,2754 3989,2754 3989,3525 3911,3525 3911,1948 3989,1948 3989,2675 4964,2675 4964,1948 5044,1948 "/>
    <path id="3" class="fil2" d="M6563 3525c-11,-37 -19,-82 -23,-134 -4,-52 -7,-104 -7,-155 -26,43 -58,83 -97,122 -39,38 -84,72 -136,101 -51,29 -109,52 -173,69 -64,17 -136,26 -214,26 -74,0 -141,-11 -201,-31 -60,-21 -110,-51 -153,-89 -42,-38 -75,-83 -98,-135 -22,-53 -33,-111 -33,-174 0,-69 16,-134 49,-193 33,-60 81,-111 144,-153 62,-42 138,-75 229,-99 90,-24 192,-36 306,-36l377 0 0 -230c0,-132 -41,-234 -124,-307 -83,-73 -202,-109 -357,-109 -71,0 -138,9 -199,29 -61,19 -114,46 -160,81 -45,34 -80,75 -106,122 -26,47 -38,98 -38,152l-80 -3c0,-61 15,-119 44,-175 29,-56 69,-105 121,-148 52,-42 113,-75 185,-100 71,-25 149,-37 233,-37 82,0 157,10 226,31 68,21 127,52 177,93 49,42 88,93 116,156 27,63 41,135 41,218l0 790c0,28 1,57 3,87 2,29 4,57 8,84 3,27 7,52 12,75 5,23 11,43 18,59l0 13 -90 0zm-650 -49c75,0 146,-8 210,-26 65,-17 123,-42 175,-76 52,-33 98,-72 137,-119 40,-45 72,-98 98,-156l0 -374 -373 0c-102,0 -193,10 -274,30 -80,20 -148,47 -205,83 -56,36 -100,79 -129,129 -31,50 -46,105 -46,164 0,48 10,93 30,134 20,42 48,78 84,110 36,32 78,57 128,74 50,18 104,27 165,27z"/>
    <path id="4" class="fil2" d="M8172 1948l81 0 0 1577 -81 0 0 -1437 -974 1437 -79 0 0 -1577 79 0 0 1437 974 -1437zm-90 -562c0,54 -9,102 -27,147 -19,44 -46,82 -80,114 -36,32 -78,57 -128,74 -50,18 -107,27 -170,27 -63,0 -120,-9 -170,-27 -51,-17 -93,-42 -129,-74 -35,-32 -61,-70 -80,-114 -18,-45 -27,-93 -27,-147l78 0c0,38 6,74 18,108 11,34 30,64 56,89 26,26 59,47 101,61 42,15 93,22 153,22 58,0 108,-7 149,-22 42,-16 75,-36 102,-62 26,-25 45,-55 57,-89 12,-33 18,-69 18,-107l79 0z"/>
    <path id="5" class="fil2" d="M8693 3446c23,-31 51,-69 84,-114 33,-45 65,-103 97,-176 32,-72 59,-161 83,-268 24,-107 38,-238 42,-392l29 -548 846 0 0 1498 126 0 0 542 -79 0 0 -463 -1269 0 0 463 -64 0 0 -542 105 0zm384 -950c-3,128 -13,242 -31,343 -18,101 -40,189 -68,265 -27,76 -57,143 -89,198 -33,56 -66,104 -99,144l1006 0 0 -1419 -694 0 -25 469z"/>
    <path id="6" class="fil2" d="M10940 3554c-97,0 -186,-20 -270,-59 -83,-39 -157,-93 -219,-162 -63,-70 -112,-152 -148,-248 -36,-96 -54,-201 -54,-315l0 -65c0,-114 17,-219 52,-316 35,-97 83,-180 142,-250 60,-69 130,-123 210,-162 80,-39 166,-58 257,-58 88,0 168,16 242,49 73,32 136,78 189,137 53,60 94,130 124,213 29,83 44,174 44,274l0 92 -1182 0 0 21 0 65c0,98 16,190 47,276 31,86 74,161 129,224 55,64 120,114 194,151 76,37 156,55 243,55 44,0 88,-3 130,-10 42,-7 83,-18 121,-35 40,-16 77,-38 113,-66 36,-28 70,-63 103,-106l55 40c-26,38 -56,72 -90,103 -34,31 -72,58 -116,80 -43,23 -91,40 -143,52 -52,13 -110,20 -173,20zm-30 -1556c-79,0 -152,15 -219,46 -67,31 -125,74 -176,129 -50,55 -91,119 -123,193 -31,74 -52,153 -60,239l1099 0 0 -19c0,-79 -13,-154 -38,-225 -25,-71 -59,-134 -105,-188 -45,-54 -99,-97 -163,-128 -64,-32 -136,-47 -215,-47z"/>
    <polygon id="7" class="fil2" points="13010,3525 12930,3525 12930,2754 11955,2754 11955,3525 11876,3525 11876,1948 11955,1948 11955,2675 12930,2675 12930,1948 13010,1948 "/>
    <path id="8" class="fil2" d="M13390 2705c0,-115 16,-221 50,-317 34,-96 81,-179 142,-249 60,-69 133,-123 217,-162 85,-39 178,-58 280,-58 103,0 197,19 282,58 85,39 157,93 218,162 60,70 107,153 140,249 34,96 51,202 51,317l0 62c0,115 -17,221 -50,317 -33,97 -80,179 -140,249 -61,69 -134,123 -218,162 -85,39 -178,59 -280,59 -103,0 -197,-20 -282,-59 -85,-39 -158,-93 -218,-162 -61,-70 -108,-152 -142,-249 -34,-96 -50,-202 -50,-317l0 -62zm79 62c0,94 14,184 41,270 28,85 68,160 120,225 53,66 117,117 193,156 75,38 162,57 259,57 96,0 182,-19 257,-57 76,-39 139,-90 191,-156 52,-65 92,-140 119,-225 28,-86 42,-176 42,-270l0 -62c0,-92 -14,-180 -42,-265 -27,-85 -67,-160 -120,-226 -52,-66 -116,-118 -192,-158 -76,-39 -162,-58 -258,-58 -96,0 -182,19 -258,58 -75,40 -140,92 -191,158 -52,66 -92,141 -120,226 -27,85 -41,173 -41,265l0 62z"/>
    <polygon id="9" class="fil3 str0" points="1193,3525 1113,3525 1113,2754 139,2754 139,3525 60,3525 60,1948 139,1948 139,2675 1113,2675 1113,1948 1193,1948 "/>
    <path id="10" class="fil3 str0" d="M2260 3554c-96,0 -186,-20 -269,-59 -84,-39 -157,-93 -220,-162 -62,-70 -112,-152 -148,-248 -36,-96 -54,-201 -54,-315l0 -65c0,-114 18,-219 53,-316 35,-97 82,-180 142,-250 59,-69 130,-123 210,-162 80,-39 165,-58 257,-58 87,0 167,16 241,49 73,32 136,78 189,137 53,60 94,130 124,213 30,83 45,174 45,274l0 92 -1182 0 0 21 0 65c0,98 15,190 47,276 31,86 74,161 128,224 56,64 120,114 195,151 75,37 156,55 242,55 44,0 88,-3 130,-10 43,-7 83,-18 122,-35 39,-16 76,-38 112,-66 36,-28 71,-63 104,-106l55 40c-26,38 -56,72 -90,103 -34,31 -73,58 -116,80 -43,23 -91,40 -144,52 -52,13 -110,20 -173,20zm-29 -1556c-80,0 -153,15 -220,46 -66,31 -124,74 -175,129 -50,55 -92,119 -123,193 -32,74 -52,153 -61,239l1099 0 0 -19c0,-79 -12,-154 -37,-225 -25,-71 -60,-134 -105,-188 -45,-54 -100,-97 -164,-128 -64,-32 -136,-47 -214,-47z"/>
    <polygon id="11" class="fil3 str0" points="5044,3525 4964,3525 4964,2754 3989,2754 3989,3525 3911,3525 3911,1948 3989,1948 3989,2675 4964,2675 4964,1948 5044,1948 "/>
    <path id="12" class="fil3 str0" d="M6563 3525c-11,-37 -19,-82 -23,-134 -4,-52 -7,-104 -7,-155 -26,43 -58,83 -97,122 -39,38 -84,72 -136,101 -51,29 -109,52 -173,69 -64,17 -136,26 -214,26 -74,0 -141,-11 -201,-31 -60,-21 -110,-51 -153,-89 -42,-38 -75,-83 -98,-135 -22,-53 -33,-111 -33,-174 0,-69 16,-134 49,-193 33,-60 81,-111 144,-153 62,-42 138,-75 229,-99 90,-24 192,-36 306,-36l377 0 0 -230c0,-132 -41,-234 -124,-307 -83,-73 -202,-109 -357,-109 -71,0 -138,9 -199,29 -61,19 -114,46 -160,81 -45,34 -80,75 -106,122 -26,47 -38,98 -38,152l-80 -3c0,-61 15,-119 44,-175 29,-56 69,-105 121,-148 52,-42 113,-75 185,-100 71,-25 149,-37 233,-37 82,0 157,10 226,31 68,21 127,52 177,93 49,42 88,93 116,156 27,63 41,135 41,218l0 790c0,28 1,57 3,87 2,29 4,57 8,84 3,27 7,52 12,75 5,23 11,43 18,59l0 13 -90 0zm-650 -49c75,0 146,-8 210,-26 65,-17 123,-42 175,-76 52,-33 98,-72 137,-119 40,-45 72,-98 98,-156l0 -374 -373 0c-102,0 -193,10 -274,30 -80,20 -148,47 -205,83 -56,36 -100,79 -129,129 -31,50 -46,105 -46,164 0,48 10,93 30,134 20,42 48,78 84,110 36,32 78,57 128,74 50,18 104,27 165,27z"/>
    <path id="13" class="fil3 str0" d="M8172 1948l81 0 0 1577 -81 0 0 -1437 -974 1437 -79 0 0 -1577 79 0 0 1437 974 -1437zm-90 -562c0,54 -9,102 -27,147 -19,44 -46,82 -80,114 -36,32 -78,57 -128,74 -50,18 -107,27 -170,27 -63,0 -120,-9 -170,-27 -51,-17 -93,-42 -129,-74 -35,-32 -61,-70 -80,-114 -18,-45 -27,-93 -27,-147l78 0c0,38 6,74 18,108 11,34 30,64 56,89 26,26 59,47 101,61 42,15 93,22 153,22 58,0 108,-7 149,-22 42,-16 75,-36 102,-62 26,-25 45,-55 57,-89 12,-33 18,-69 18,-107l79 0z"/>
    <path id="14" class="fil3 str0" d="M8693 3446c23,-31 51,-69 84,-114 33,-45 65,-103 97,-176 32,-72 59,-161 83,-268 24,-107 38,-238 42,-392l29 -548 846 0 0 1498 126 0 0 542 -79 0 0 -463 -1269 0 0 463 -64 0 0 -542 105 0zm384 -950c-3,128 -13,242 -31,343 -18,101 -40,189 -68,265 -27,76 -57,143 -89,198 -33,56 -66,104 -99,144l1006 0 0 -1419 -694 0 -25 469z"/>
    <path id="15" class="fil3 str0" d="M10940 3554c-97,0 -186,-20 -270,-59 -83,-39 -157,-93 -219,-162 -63,-70 -112,-152 -148,-248 -36,-96 -54,-201 -54,-315l0 -65c0,-114 17,-219 52,-316 35,-97 83,-180 142,-250 60,-69 130,-123 210,-162 80,-39 166,-58 257,-58 88,0 168,16 242,49 73,32 136,78 189,137 53,60 94,130 124,213 29,83 44,174 44,274l0 92 -1182 0 0 21 0 65c0,98 16,190 47,276 31,86 74,161 129,224 55,64 120,114 194,151 76,37 156,55 243,55 44,0 88,-3 130,-10 42,-7 83,-18 121,-35 40,-16 77,-38 113,-66 36,-28 70,-63 103,-106l55 40c-26,38 -56,72 -90,103 -34,31 -72,58 -116,80 -43,23 -91,40 -143,52 -52,13 -110,20 -173,20zm-30 -1556c-79,0 -152,15 -219,46 -67,31 -125,74 -176,129 -50,55 -91,119 -123,193 -31,74 -52,153 -60,239l1099 0 0 -19c0,-79 -13,-154 -38,-225 -25,-71 -59,-134 -105,-188 -45,-54 -99,-97 -163,-128 -64,-32 -136,-47 -215,-47z"/>
    <polygon id="16" class="fil3 str0" points="13010,3525 12930,3525 12930,2754 11955,2754 11955,3525 11876,3525 11876,1948 11955,1948 11955,2675 12930,2675 12930,1948 13010,1948 "/>
    <path id="17" class="fil3 str0" d="M13390 2705c0,-115 16,-221 50,-317 34,-96 81,-179 142,-249 60,-69 133,-123 217,-162 85,-39 178,-58 280,-58 103,0 197,19 282,58 85,39 157,93 218,162 60,70 107,153 140,249 34,96 51,202 51,317l0 62c0,115 -17,221 -50,317 -33,97 -80,179 -140,249 -61,69 -134,123 -218,162 -85,39 -178,59 -280,59 -103,0 -197,-20 -282,-59 -85,-39 -158,-93 -218,-162 -61,-70 -108,-152 -142,-249 -34,-96 -50,-202 -50,-317l0 -62zm79 62c0,94 14,184 41,270 28,85 68,160 120,225 53,66 117,117 193,156 75,38 162,57 259,57 96,0 182,-19 257,-57 76,-39 139,-90 191,-156 52,-65 92,-140 119,-225 28,-86 42,-176 42,-270l0 -62c0,-92 -14,-180 -42,-265 -27,-85 -67,-160 -120,-226 -52,-66 -116,-118 -192,-158 -76,-39 -162,-58 -258,-58 -96,0 -182,19 -258,58 -75,40 -140,92 -191,158 -52,66 -92,141 -120,226 -27,85 -41,173 -41,265l0 62z"/>
   </g>
   <circle class="fil4" cx="16364" cy="1300" r="111"/>
   <circle class="fil4" cx="17068" cy="1300" r="111"/>
   <path class="fil4" d="M16728 1703c197,0 369,103 467,258 -125,-85 -288,-136 -467,-136 -178,0 -341,51 -466,136 97,-155 270,-258 466,-258z"/>
  </g>
 </g>
</svg>
