<?xml version="1.0" encoding="UTF-8"?>
<!DOCTYPE svg PUBLIC "-//W3C//DTD SVG 1.1//EN" "http://www.w3.org/Graphics/SVG/1.1/DTD/svg11.dtd">
<!-- Creator: CorelDRAW X8 -->
<svg xmlns="http://www.w3.org/2000/svg" xml:space="preserve" width="143px" height="49px" version="1.1" style="shape-rendering:geometricPrecision; text-rendering:geometricPrecision; image-rendering:optimizeQuality; fill-rule:evenodd; clip-rule:evenodd"
viewBox="0 0 541 184"
 xmlns:xlink="http://www.w3.org/1999/xlink">
 <defs>
  <style type="text/css">
   <![CDATA[
    .str0 {stroke:white;stroke-width:3.40408}
    .fil1 {fill:#FEFEFE;fill-rule:nonzero}
    .fil0 {fill:black;fill-rule:nonzero}
    .fil2 {fill:white;fill-rule:nonzero}
    .fil3 {fill:white;fill-rule:nonzero}
    .fil6 {fill:url(#id2);fill-rule:nonzero}
    .fil5 {fill:url(#id3);fill-rule:nonzero}
    .fil7 {fill:url(#id4);fill-rule:nonzero}
    .fil4 {fill:url(#id5);fill-rule:nonzero}
   ]]>
  </style>
    <mask id="id0">
  <linearGradient id="id1" gradientUnits="userSpaceOnUse" x1="181.751" y1="-363.939" x2="305.876" y2="99.3021">
   <stop offset="0" style="stop-opacity:1; stop-color:white"/>
   <stop offset="1" style="stop-opacity:0; stop-color:white"/>
  </linearGradient>
     <rect style="fill:url(#id1)" x="161" y="-3" width="382" height="189"/>
    </mask>
  <linearGradient id="id2" gradientUnits="userSpaceOnUse" x1="108.377" y1="101.546" x2="41.5995" y2="32.3968">
   <stop offset="0" style="stop-opacity:1; stop-color:#E7FFAA"/>
   <stop offset="1" style="stop-opacity:1; stop-color:#44BEBD"/>
  </linearGradient>
  <linearGradient id="id3" gradientUnits="userSpaceOnUse" x1="107.774" y1="91.0123" x2="42.2606" y2="161.265">
   <stop offset="0" style="stop-opacity:1; stop-color:#E63D45"/>
   <stop offset="1" style="stop-opacity:1; stop-color:#7D50A0"/>
  </linearGradient>
  <linearGradient id="id4" gradientUnits="userSpaceOnUse" x1="63.5786" y1="155.757" x2="63.5786" y2="37.5968">
   <stop offset="0" style="stop-opacity:1; stop-color:#83E9DC"/>
   <stop offset="1" style="stop-opacity:1; stop-color:#1D7390"/>
  </linearGradient>
  <linearGradient id="id5" gradientUnits="userSpaceOnUse" x1="131.343" y1="120.697" x2="106.608" y2="72.1513">
   <stop offset="0" style="stop-opacity:1; stop-color:#FDD08E"/>
   <stop offset="1" style="stop-opacity:1; stop-color:#F69572"/>
  </linearGradient>
 </defs>
 <g id="Слой_x0020_1">
  <metadata id="CorelCorpID_0Corel-Layer"/>
  <g id="_169897370736">
   <path class="fil0 str0" d="M521 2l-501 0c-10,0 -18,8 -18,18l0 144c0,10 8,18 18,18l501 0c10,0 18,-8 18,-18l0 -144c0,-10 -8,-18 -18,-18z"/>
   <path class="fil1" style="mask:url(#id0)" d="M521 2l-355 0 48 180 307 0c10,0 18,-8 18,-18l0 -144c0,-10 -8,-18 -18,-18z"/>
   <polygon class="fil2" points="435,133 431,133 431,84 435,84 "/>
   <path class="fil2" d="M470 127l0 -19c0,0 0,-11 -14,-11 -13,0 -13,10 -13,10l4 0c0,0 0,-7 9,-7 10,0 10,8 10,8l0 5 -8 0c-11,0 -17,4 -17,10 0,7 3,11 12,11 8,0 13,-6 13,-6 0,2 1,5 1,5l5 0c0,0 -2,-3 -2,-6zm-4 -7l0 0c0,7 -9,10 -13,10 -4,0 -8,-2 -8,-6 0,-5 6,-8 13,-8l8 0 0 4z"/>
   <path class="fil2" d="M474 98l5 0 13 30 12 -30 5 0c0,0 -16,39 -18,43 -2,3 -5,7 -10,7 -2,0 -4,-1 -4,-1l1 -4c0,0 1,1 3,1 2,0 6,-5 6,-5l2 -6 -15 -35z"/>
   <path class="fil2" d="M410 97c-7,0 -12,6 -13,6l0 -5 0 0 -4 0 0 48 4 0 0 0 0 -19c1,0 5,7 13,7 9,0 16,-6 16,-19 0,-13 -8,-18 -16,-18zm-1 34l0 0c-7,0 -11,-8 -12,-8l0 -15c1,0 6,-8 13,-8 6,0 12,7 12,15 0,9 -5,16 -13,16z"/>
   <path class="fil2" d="M206 88c0,0 -6,-6 -20,-6 -18,0 -29,14 -29,26 0,12 8,26 28,26 10,0 21,-4 21,-4 0,0 0,-4 0,-8 0,-5 3,-6 3,-6l-16 0 -5 3c3,-1 11,-1 11,-1l0 11c0,0 -4,2 -9,2 -15,0 -25,-13 -25,-25 0,-15 11,-22 20,-22 9,0 14,7 14,7l-2 3 3 -1 6 -5z"/>
   <path class="fil2" d="M231 97c-11,0 -19,8 -19,19 0,8 6,17 18,17 11,0 19,-7 19,-18 0,-11 -8,-18 -18,-18zm0 34l0 0c-8,0 -12,-13 -12,-20 0,-7 4,-11 10,-11 7,0 12,8 12,19 0,3 -1,12 -10,12z"/>
   <path class="fil2" d="M271 97c-10,0 -19,8 -19,19 0,8 7,17 18,17 11,0 19,-7 19,-18 0,-11 -7,-18 -18,-18zm1 34l0 0c-9,0 -13,-13 -13,-20 0,-7 5,-11 10,-11 8,0 13,8 13,19 0,3 -1,12 -10,12z"/>
   <path class="fil2" d="M319 131c-4,-3 -4,-4 -4,-5 0,-1 0,-2 2,-5 3,-2 5,-5 5,-10 0,-7 -4,-10 -4,-10l4 0 5 -3c0,0 -9,0 -18,0 -9,0 -16,7 -16,15 0,5 5,12 14,12 1,0 1,-1 1,-1 0,0 0,1 0,3 0,3 2,5 2,5 0,0 -21,0 -21,13 0,8 9,11 17,11 7,0 19,-4 19,-14 0,-5 -2,-9 -6,-11zm-10 -9l0 0c-5,0 -9,-8 -9,-13 0,-4 2,-8 7,-8 4,0 9,5 9,14 0,3 -1,7 -7,7zm0 31l0 0c-2,0 -13,-1 -13,-10 0,-8 12,-9 14,-9 1,0 2,0 2,0 4,4 8,5 8,10 0,8 -8,9 -11,9z"/>
   <path class="fil2" d="M326 82l5 -3 11 0c-3,2 -4,3 -4,9 0,7 0,39 0,39 0,3 2,3 4,3 2,0 3,1 3,1l-3 1 -13 0c0,0 2,-1 2,-3l0 -47 -5 0z"/>
   <path class="fil2" d="M375 107c0,0 -2,-10 -13,-10 -12,0 -18,9 -18,18 0,8 6,18 18,18 10,0 14,-6 14,-6 0,0 -5,2 -9,2 -8,0 -16,-7 -16,-19 0,-7 5,-10 8,-10 7,0 8,6 8,7 -1,1 -16,7 -16,7l6 0 18 -7z"/>
   <path class="fil3" d="M181 38c0,2 -1,3 -2,4 -1,1 -2,2 -4,3 2,1 4,1 5,3 1,1 1,2 1,4 0,3 -1,5 -3,7 -2,1 -5,2 -9,2 -3,0 -6,-1 -8,-2 -2,-2 -4,-4 -3,-7l0 0 4 0c0,2 0,3 2,4 1,1 3,2 5,2 3,0 4,-1 6,-2 1,-1 2,-2 2,-4 0,-2 -1,-3 -2,-4 -1,-1 -3,-1 -6,-1l-3 0 0 -4 3 0c3,0 5,0 6,-1 1,-1 2,-2 2,-4 0,-1 -1,-3 -2,-4 -2,-1 -4,-1 -6,-1 -2,0 -4,0 -5,1 -1,1 -2,3 -2,4l-4 0 0 0c0,-3 1,-5 3,-6 2,-2 5,-2 8,-2 4,0 6,0 9,2 2,1 3,4 3,6z"/>
   <path id="1" class="fil3" d="M201 61c0,-1 0,-2 0,-2 0,-1 0,-1 0,-2 -1,1 -2,2 -3,3 -2,1 -3,1 -4,1 -3,0 -5,-1 -6,-2 -1,-1 -2,-3 -2,-5 0,-2 1,-4 3,-5 2,-1 4,-2 7,-2l5 0 0 -2c0,-1 -1,-2 -2,-3 0,-1 -2,-1 -3,-1 -1,0 -3,0 -3,1 -1,0 -2,1 -2,2l-4 0 0 0c0,-2 1,-3 3,-4 1,-2 4,-3 6,-3 3,0 5,1 6,2 2,2 3,4 3,6l0 11c0,1 0,2 0,2 0,1 0,2 0,3l-4 0zm-7 -3c2,0 3,-1 4,-2 1,0 2,-1 3,-2l0 -4 -5 0c-2,0 -3,1 -4,1 -1,1 -2,2 -2,3 0,1 1,2 1,3 1,0 2,1 3,1z"/>
   <polygon id="2" class="fil3" points="225,41 215,41 215,61 211,61 211,38 225,38 "/>
   <path id="3" class="fil3" d="M248 50c0,3 -1,6 -2,8 -2,2 -4,3 -7,3 -1,0 -3,0 -4,-1 -1,0 -2,-1 -2,-2l0 11 -4 0 0 -31 3 0 0 3c1,-1 2,-2 3,-3 1,0 3,-1 4,-1 3,0 5,2 7,4 1,2 2,5 2,9l0 0zm-4 0c0,-3 -1,-5 -2,-7 -1,-1 -2,-2 -4,-2 -1,0 -2,0 -3,1 -1,0 -2,1 -2,2l0 11c0,1 1,2 2,2 1,1 2,1 3,1 2,0 3,-1 4,-2 1,-2 2,-4 2,-6l0 0z"/>
   <path id="4" class="fil3" d="M260 52l0 3 1 0 5 -17 5 0 -10 26c0,2 -1,3 -2,4 -1,1 -3,2 -5,2 0,0 0,0 -1,0 0,0 -1,0 -1,-1l0 -3c0,0 1,0 1,0 1,0 1,0 1,0 1,0 2,0 2,-1 1,-1 1,-1 2,-2l1 -3 -9 -22 5 0 5 14z"/>
   <path id="5" class="fil3" d="M283 47c2,0 3,0 4,0 1,-1 1,-2 1,-3 0,-1 0,-2 -1,-2 -1,-1 -2,-1 -4,-1 -1,0 -3,0 -4,1 -1,0 -1,1 -1,2l-4 0 0 0c0,-2 1,-3 3,-5 1,-1 3,-1 6,-1 3,0 5,0 7,1 1,1 2,3 2,5 0,1 0,2 -1,3 -1,1 -2,1 -3,2 2,0 3,1 3,2 1,1 2,2 2,3 0,2 -1,4 -3,5 -2,1 -4,2 -7,2 -3,0 -5,-1 -7,-2 -2,-1 -2,-3 -2,-5l0 0 4 0c0,1 0,2 1,3 1,0 2,1 4,1 2,0 3,0 4,-1 1,-1 1,-2 1,-3 0,-1 0,-2 -1,-2 -1,-1 -2,-1 -4,-1l-4 0 0 -4 4 0z"/>
   <polygon id="6" class="fil3" points="312,38 316,38 316,61 312,61 312,45 312,44 302,61 298,61 298,38 302,38 302,54 302,54 "/>
   <polygon id="7" class="fil3" points="340,41 332,41 332,61 328,61 328,41 321,41 321,38 340,38 "/>
   <path id="8" class="fil3" d="M353 61c-3,0 -6,-1 -7,-3 -2,-2 -3,-5 -3,-8l0 -1c0,-3 1,-6 3,-8 1,-2 4,-4 6,-4 4,0 6,1 7,3 2,2 3,5 3,8l0 2 -15 0 0 0c0,2 1,4 2,6 1,1 2,2 4,2 2,0 3,0 4,-1 1,0 2,-1 3,-1l1 2c-1,1 -2,2 -3,2 -1,1 -3,1 -5,1zm-1 -20c-1,0 -2,0 -3,1 -1,2 -2,3 -2,5l0 0 10 0 0 -1c0,-1 0,-3 -1,-4 -1,-1 -2,-1 -4,-1z"/>
   <polygon id="9" class="fil3" points="395,61 391,61 391,51 381,51 381,61 377,61 377,38 381,38 381,48 391,48 391,38 395,38 "/>
   <path id="10" class="fil3" d="M415 61c0,-1 0,-2 0,-2 0,-1 0,-1 0,-2 -1,1 -2,2 -3,3 -1,1 -3,1 -4,1 -2,0 -4,-1 -5,-2 -2,-1 -2,-3 -2,-5 0,-2 1,-4 2,-5 2,-1 4,-2 7,-2l5 0 0 -2c0,-1 0,-2 -1,-3 -1,-1 -2,-1 -4,-1 -1,0 -2,0 -3,1 -1,0 -1,1 -1,2l-4 0 0 0c0,-2 0,-3 2,-4 2,-2 4,-3 7,-3 2,0 4,1 6,2 1,2 2,4 2,6l0 11c0,1 0,2 0,2 0,1 0,2 1,3l-5 0zm-6 -3c1,0 2,-1 4,-2 1,0 2,-1 2,-2l0 -4 -5 0c-1,0 -3,1 -4,1 -1,1 -1,2 -1,3 0,1 0,2 1,3 0,0 1,1 3,1z"/>
   <path class="fil4" d="M114 115c14,-8 24,-14 25,-14 3,-2 6,-6 0,-9 -2,-1 -12,-7 -25,-14l-19 18 19 19z"/>
   <path class="fil5" d="M95 96l-59 60c2,0 3,0 5,-1 4,-3 45,-25 73,-40l-19 -19z"/>
   <path class="fil6" d="M95 96l19 -18c0,0 -69,-37 -73,-40 -1,0 -3,-1 -5,0l59 58z"/>
   <path class="fil7" d="M95 96l-59 -58c-2,0 -4,2 -4,6 0,7 0,99 0,105 0,4 2,6 4,7l59 -60z"/>
  </g>
 </g>
</svg>
