<svg xmlns="http://www.w3.org/2000/svg" xmlns:xlink="http://www.w3.org/1999/xlink" width="135" height="40"><rect id="backgroundrect" width="100%" height="100%" x="0" y="0" fill="none" stroke="none" class=""/><defs><linearGradient id="linear-gradient" x1="31.799999237060547" y1="183.2899932861328" x2="15.020000457763672" y2="166.50999450683594" gradientTransform="matrix(1, 0, 0, -1, 0, 202)" gradientUnits="userSpaceOnUse"><stop offset="0" stop-color="#00a0ff"/><stop offset="0.01" stop-color="#00a1ff"/><stop offset="0.26" stop-color="#00beff"/><stop offset="0.51" stop-color="#00d2ff"/><stop offset="0.76" stop-color="#00dfff"/><stop offset="1" stop-color="#00e3ff"/></linearGradient><linearGradient id="linear-gradient-2" x1="43.83000183105469" y1="172" x2="19.639999389648438" y2="172" gradientTransform="matrix(1, 0, 0, -1, 0, 202)" gradientUnits="userSpaceOnUse"><stop offset="0" stop-color="#ffe000"/><stop offset="0.41" stop-color="#ffbd00"/><stop offset="0.78" stop-color="orange"/><stop offset="1" stop-color="#ff9c00"/></linearGradient><linearGradient id="linear-gradient-3" x1="34.83000183105469" y1="169.6999969482422" x2="12.069999694824219" y2="146.9499969482422" gradientTransform="matrix(1, 0, 0, -1, 0, 202)" gradientUnits="userSpaceOnUse"><stop offset="0" stop-color="#ff3a44"/><stop offset="1" stop-color="#c31162"/></linearGradient><linearGradient id="linear-gradient-4" x1="17.299999237060547" y1="191.82000732421875" x2="27.459999084472656" y2="181.66000366210938" gradientTransform="matrix(1, 0, 0, -1, 0, 202)" gradientUnits="userSpaceOnUse"><stop offset="0" stop-color="#32a071"/><stop offset="0.07" stop-color="#2da771"/><stop offset="0.48" stop-color="#15cf74"/><stop offset="0.8" stop-color="#06e775"/><stop offset="1" stop-color="#00f076"/></linearGradient></defs><title>ru_get</title><g class="currentLayer"><title>Layer 1</title><rect x="0" y="0" width="135" height="40" rx="5" ry="5" id="svg_2" class=""/><path d="M130,0.8000000000000007 a4.2,4.2 0 0 1 4.2,4.2 V35 a4.2,4.2 0 0 1 -4.2,4.2 H5 A4.2,4.2 0 0 1 0.8000000000000007,35 V5 A4.2,4.2 0 0 1 5,0.8000000000000007 H130 m0,-0.8 H5 a5,5 0 0 0 -5,5 V35 a5,5 0 0 0 5,5 H130 a5,5 0 0 0 5,-5 V5 a5,5 0 0 0 -5,-5 z" style="fill:#a6a6a6" id="svg_3" class=""/><path d="M68.14,21.75 A4.25,4.25 0 1 0 72.41,26 A4.19,4.19 0 0 0 68.14,21.75 zm0,6.83 A2.58,2.58 0 1 1 70.54,26 A2.46,2.46 0 0 1 68.14,28.58 zm-9.31,-6.83 A4.25,4.25 0 1 0 63.09,26 A4.19,4.19 0 0 0 58.81999999999999,21.75 zm0,6.83 A2.58,2.58 0 1 1 61.22,26 A2.46,2.46 0 0 1 58.81999999999999,28.58 zM47.74,23.060000000000002 v1.8 h4.32 a3.77,3.77 0 0 1 -1,2.27 a4.42,4.42 0 0 1 -3.33,1.32 a4.8,4.8 0 0 1 0,-9.6 A4.6,4.6 0 0 1 51,20.14 l1.27,-1.27 A6.29,6.29 0 0 0 47.74,17 a6.61,6.61 0 1 0 0,13.21 a6,6 0 0 0 4.61,-1.85 a6,6 0 0 0 1.56,-4.22 a5.87,5.87 0 0 0 -0.1,-1.13 zm45.31,1.4 a4,4 0 0 0 -3.64,-2.71 a4,4 0 0 0 -4,4.25 a4.16,4.16 0 0 0 4.22,4.25 a4.23,4.23 0 0 0 3.54,-1.8800000000000003 l-1.45,-1 a2.43,2.43 0 0 1 -2.09,1.18 a2.16,2.16 0 0 1 -2.06,-1.29 l5.69,-2.35 zm-5.8,1.42 a2.33,2.33 0 0 1 2.22,-2.48 a1.6500000000000004,1.6500000000000004 0 0 1 1.58,0.9 zM82.63,30 H84.5 V17.5 H82.63 zm-3.06,-7.3 H79.5 a3,3 0 0 0 -2.24,-1 a4.26,4.26 0 0 0 0,8.51 a2.9,2.9 0 0 0 2.24,-1 h0.06000000000000002 v0.6100000000000002 c0,1.6300000000000003 -0.8700000000000002,2.5 -2.27,2.5 a2.35,2.35 0 0 1 -2.14,-1.51 l-1.6300000000000003,0.6800000000000004 a4.05,4.05 0 0 0 3.77,2.51 c2.19,0 4,-1.29 4,-4.43 V22 H79.57 zm-2.14,5.88 a2.59,2.59 0 0 1 0,-5.16 A2.4,2.4 0 0 1 79.7,26 A2.38,2.38 0 0 1 77.42,28.58 zM101.81,17.5 h-4.47 V30 h1.87 V25.259999999999998 h2.6100000000000003 a3.89,3.89 0 1 0 0,-7.76 zm0,6 H99.2 V19.24 h2.6500000000000004 a2.14,2.14 0 1 1 0,4.29 zm11.53,-1.8 a3.5,3.5 0 0 0 -3.33,1.9100000000000001 l1.6600000000000001,0.6900000000000004 a1.77,1.77 0 0 1 1.7000000000000002,-0.92 a1.8,1.8 0 0 1 2,1.61 v0.13 a4.13,4.13 0 0 0 -1.9500000000000002,-0.4800000000000001 c-1.79,0 -3.6,1 -3.6,2.81 a2.89,2.89 0 0 0 3.1,2.75 A2.63,2.63 0 0 0 115.32,29 h0.06000000000000002 v1 h1.8 V25.189999999999998 C117.18,23 115.52,21.73 113.39,21.73 zm-0.23,6.85 c-0.6100000000000002,0 -1.46,-0.3100000000000001 -1.46,-1.06 c0,-1 1.06,-1.33 2,-1.33 a3.3200000000000003,3.3200000000000003 0 0 1 1.7000000000000002,0.4200000000000001 A2.26,2.26 0 0 1 113.16,28.58 zM123.74000000000001,22 l-2.14,5.42 h-0.06000000000000002 L119.32,22 h-2 l3.33,7.58 l-1.9,4.21 h1.9500000000000002 L125.82,22 zm-16.81,8 h1.87 V17.5 h-1.87 z" style="fill:#fff" id="svg_4" class=""/><path d="M10.440000000000001,7.539999999999999 a2,2 0 0 0 -0.46,1.4 V31.060000000000002 a2,2 0 0 0 0.46,1.4 l0.07,0.07 L22.9,20.15 v-0.2900000000000001 L10.510000000000002,7.469999999999999 z" style="fill:url(#linear-gradient)" id="svg_5" class=""/><path d="M27,24.28 L22.9,20.15 v-0.2900000000000001 L27,15.719999999999999 l0.09000000000000004,0.05000000000000002 L32,18.56 c1.4,0.79 1.4,2.09 0,2.89 l-4.8900000000000015,2.7800000000000002 z" style="fill:url(#linear-gradient-2)" id="svg_6" class=""/><path d="M27.119999999999997,24.22 L22.9,20 L10.440000000000001,32.46 a1.6300000000000003,1.6300000000000003 0 0 0 2.08,0.06000000000000002 l14.61,-8.3 " style="fill:url(#linear-gradient-3)" id="svg_7" class=""/><path d="M27.119999999999997,15.780000000000001 l-14.61,-8.3 a1.6300000000000003,1.6300000000000003 0 0 0 -2.08,0.06000000000000002 L22.9,20 z" style="fill:url(#linear-gradient-4)" id="svg_8" class=""/><path d="M27,24.130000000000003 L12.510000000000002,32.38 a1.6700000000000004,1.6700000000000004 0 0 1 -2,0 h0 l-0.07,0.07 h0 l0.07,0.07 h0 a1.6600000000000001,1.6600000000000001 0 0 0 2,0 l14.61,-8.3 z" style="opacity:0.2;isolation:isolate" id="svg_9" class=""/><path d="M10.440000000000001,32.32 a2,2 0 0 1 -0.46,-1.4 v0.15000000000000005 a2,2 0 0 0 0.46,1.4 l0.07,-0.07 z" style="opacity:0.12;isolation:isolate" id="svg_10" class=""/><path d="M32,21.3 l-5,2.83 l0.09000000000000004,0.09000000000000004 L32,21.44 a1.75,1.75 0 0 0 1,-1.44 h0 A1.86,1.86 0 0 1 32,21.3 z" style="opacity:0.12;isolation:isolate" id="svg_11" class=""/><path d="M12.510000000000002,7.620000000000001 L32,18.7 a1.86,1.86 0 0 1 1,1.3 h0 a1.75,1.75 0 0 0 -1,-1.44 L12.510000000000002,7.48 c-1.4,-0.79 -2.54,-0.13 -2.54,1.47 v0.15000000000000005 C10,7.489999999999998 11.120000000000001,6.829999999999998 12.510000000000002,7.620000000000001 z" style="fill:#fff;opacity:0.25;isolation:isolate" id="svg_12" class=""/><path d="M42.11,14.27 h-0.7400000000000002 v-2 H42 a2.8600000000000003,2.8600000000000003 0 0 0 0.7600000000000002,-2.3 V7 h4 v5.26 h0.6700000000000004 v2 h-0.7400000000000002 V13 H42.11 zM43.5,10 a4,4 0 0 1 -0.5700000000000002,2.3 h3 V7.739999999999998 H43.5 z" style="fill:#fff;stroke:#fff;stroke-miterlimit:10;stroke-width:0.2px" id="svg_13" class=""/><path d="M53.41,12.219999999999999 a3.12,3.12 0 0 1 -4.4,0 a3.24,3.24 0 0 1 0,-4.45 a3.1,3.1 0 0 1 4.4,0 a3.23,3.23 0 0 1 0,4.45 zm-3.83,-0.5 a2.31,2.31 0 0 0 3.26,0 a2.56,2.56 0 0 0 0,-3.44 a2.31,2.31 0 0 0 -3.26,0 a2.56,2.56 0 0 0 0,3.44 z" style="fill:#fff;stroke:#fff;stroke-miterlimit:10;stroke-width:0.2px" id="svg_14" class=""/><path d="M58.18000000000001,13.129999999999999 A3.06,3.06 0 0 1 55.06,10 a3.06,3.06 0 0 1 3.12,-3.13 a2.77,2.77 0 0 1 2.2,1 l-0.54,0.52 a2,2 0 0 0 -1.6700000000000004,-0.7600000000000002 a2.27,2.27 0 0 0 -1.6600000000000001,0.6600000000000003 a2.5700000000000003,2.5700000000000003 0 0 0 0,3.47 a2.27,2.27 0 0 0 1.6600000000000001,0.6600000000000003 A2.37,2.37 0 0 0 60,11.530000000000001 l0.54,0.54 a2.92,2.92 0 0 1 -1,0.78 A3.15,3.15 0 0 1 58.18000000000001,13.129999999999999 z" style="fill:#fff;stroke:#fff;stroke-miterlimit:10;stroke-width:0.2px" id="svg_15" class=""/><path d="M63.68000000000001,13 h-0.77 V7.739999999999998 H61.230000000000004 V7 h4.12 v0.7400000000000002 H63.68000000000001 z" style="fill:#fff;stroke:#fff;stroke-miterlimit:10;stroke-width:0.2px" id="svg_16" class=""/><path d="M70.65,7 l-2.27,5.06 A1.51,1.51 0 0 1 67,13.129999999999999 a1.54,1.54 0 0 1 -0.6000000000000002,-0.13 l0.2,-0.7100000000000002 a0.81,0.81 0 0 0 0.4,0.11000000000000003 a0.7100000000000002,0.7100000000000002 0 0 0 0.4200000000000001,-0.1 a0.9400000000000002,0.9400000000000002 0 0 0 0.27,-0.3800000000000001 l0.22000000000000006,-0.4800000000000001 l-2,-4.43 h0.91 l1.48,3.44 h0 L69.74,7 z" style="fill:#fff;stroke:#fff;stroke-miterlimit:10;stroke-width:0.2px" id="svg_17" class=""/><path d="M71.52,13 V7 h4.34 v6 h-0.77 V7.739999999999998 h-2.8 V13 z" style="fill:#fff;stroke:#fff;stroke-miterlimit:10;stroke-width:0.2px" id="svg_18" class=""/><path d="M77.23,13 V7 H78 v2.5700000000000003 h3 V7 h0.77 v6 H81 V10.29 H78 V13 z" style="fill:#fff;stroke:#fff;stroke-miterlimit:10;stroke-width:0.2px" id="svg_19" class=""/><path d="M88.06,12.219999999999999 a3.12,3.12 0 0 1 -4.4,0 a3.24,3.24 0 0 1 0,-4.45 a3.1,3.1 0 0 1 4.4,0 a3.23,3.23 0 0 1 0,4.45 zm-3.83,-0.5 a2.31,2.31 0 0 0 3.26,0 a2.56,2.56 0 0 0 0,-3.44 a2.31,2.31 0 0 0 -3.26,0 a2.56,2.56 0 0 0 0,3.44 z" style="fill:#fff;stroke:#fff;stroke-miterlimit:10;stroke-width:0.2px" id="svg_20" class=""/><path d="M92.09,13 V7 h2.17 a1.7600000000000002,1.7600000000000002 0 0 1 1.22,0.46 a1.51,1.51 0 0 1 0.52,1.17 a1.31,1.31 0 0 1 -0.22000000000000006,0.7500000000000002 a1.3900000000000001,1.3900000000000001 0 0 1 -0.5900000000000002,0.4900000000000001 v0 a1.52,1.52 0 0 1 0.7300000000000002,0.52 a1.36,1.36 0 0 1 0.2900000000000001,0.8600000000000002 a1.57,1.57 0 0 1 -0.54,1.22 a1.85,1.85 0 0 1 -1.28,0.4900000000000001 zm0.77,-3.43 h1.4 a0.9,0.9 0 0 0 0.7000000000000002,-0.2900000000000001 A0.8900000000000002,0.8900000000000002 0 0 0 95,8 a0.8600000000000002,0.8600000000000002 0 0 0 -0.6700000000000004,-0.2900000000000001 h-1.4300000000000002 zm0,2.6900000000000004 h1.55 a0.92,0.92 0 0 0 0.7200000000000002,-0.3100000000000001 a1,1 0 0 0 0.28,-0.6800000000000004 a1,1 0 0 0 -1,-1 h-1.52 z" style="fill:#fff;stroke:#fff;stroke-miterlimit:10;stroke-width:0.2px" id="svg_21" class=""/></g></svg>