<?xml version="1.0" encoding="UTF-8"?>
<!DOCTYPE svg PUBLIC "-//W3C//DTD SVG 1.1//EN" "http://www.w3.org/Graphics/SVG/1.1/DTD/svg11.dtd">
<!-- Creator: CorelDRAW X8 -->
<svg xmlns="http://www.w3.org/2000/svg" xml:space="preserve" width="68.3684mm" height="20.0025mm" version="1.1" style="shape-rendering:geometricPrecision; text-rendering:geometricPrecision; image-rendering:optimizeQuality; fill-rule:evenodd; clip-rule:evenodd"
viewBox="0 0 66887 19569"
 xmlns:xlink="http://www.w3.org/1999/xlink">
 <defs>
  <style type="text/css">
   <![CDATA[
    .fil0 {fill:#DC0000}
    .fil1 {fill:#FEFEFE;fill-rule:nonzero}
   ]]>
  </style>
 </defs>
 <g id="Слой_x0020_1">
  <metadata id="CorelCorpID_0Corel-Layer"/>
  <rect class="fil0" width="66887" height="19569" rx="1957" ry="1957"/>
  <path class="fil1" d="M8181 10453l0 -27c0,-667 158,-1287 476,-1857 315,-570 759,-1024 1330,-1364 570,-338 1201,-507 1898,-507 638,0 1185,104 1641,313 455,210 861,512 1219,904l-1019 1096c-277,-291 -559,-512 -845,-665 -286,-151 -622,-228 -1010,-228 -586,0 -1073,221 -1465,665 -392,444 -588,981 -588,1612l0 25c0,649 200,1197 604,1643 403,444 915,667 1535,667 360,0 690,-76 985,-232 295,-153 584,-376 866,-667l989 978c-388,437 -809,769 -1264,999 -456,228 -1010,342 -1662,342 -694,0 -1325,-166 -1891,-498 -566,-331 -1008,-782 -1323,-1345 -318,-566 -476,-1184 -476,-1854z"/>
  <polygon id="1" class="fil1" points="16229,13988 16229,6847 17825,6847 17825,10269 20936,6847 22856,6847 20083,9845 23088,13988 21154,13988 18995,11042 17825,12270 17825,13988 "/>
  <path id="2" class="fil1" d="M23760 11907c0,-766 266,-1348 798,-1744 532,-399 1233,-598 2103,-598 697,0 1353,99 1968,298l0 -133c0,-503 -151,-884 -450,-1148 -302,-263 -735,-396 -1301,-396 -643,0 -1323,151 -2040,453l-453 -1312c441,-196 870,-343 1287,-442 415,-97 895,-147 1436,-147 1041,0 1826,262 2353,783 528,520 792,1267 792,2236l0 4231 -1637 0 0 -881c-575,687 -1344,1030 -2304,1030 -464,0 -886,-83 -1267,-248 -379,-165 -687,-419 -926,-762 -239,-343 -359,-748 -359,-1220zm1637 -56c0,325 128,582 388,771 259,189 588,284 987,284 546,0 994,-140 1350,-419 356,-280 535,-638 535,-1080l0 -408c-476,-189 -1019,-284 -1635,-284 -512,0 -913,99 -1197,297 -286,199 -428,478 -428,839z"/>
  <path id="3" class="fil1" d="M31968 9608l0 -2761 1637 0 0 2376c0,340 108,633 324,879 214,245 501,369 852,369 609,0 1191,-157 1745,-475l0 -3149 1637 0 0 7141 -1637 0 0 -2669c-282,144 -617,268 -1005,374 -388,106 -760,158 -1116,158 -731,0 -1321,-196 -1767,-586 -447,-392 -670,-945 -670,-1657z"/>
  <path id="4" class="fil1" d="M39729 11907c0,-766 266,-1348 798,-1744 533,-399 1234,-598 2104,-598 696,0 1352,99 1968,298l0 -133c0,-503 -151,-884 -451,-1148 -302,-263 -735,-396 -1301,-396 -642,0 -1323,151 -2040,453l-453 -1312c442,-196 870,-343 1287,-442 415,-97 895,-147 1436,-147 1042,0 1826,262 2354,783 527,520 791,1267 791,2236l0 4231 -1637 0 0 -881c-575,687 -1343,1030 -2304,1030 -464,0 -886,-83 -1267,-248 -378,-165 -687,-419 -926,-762 -239,-343 -359,-748 -359,-1220zm1637 -56c0,325 129,582 388,771 259,189 588,284 987,284 546,0 994,-140 1351,-419 356,-280 534,-638 534,-1080l0 -408c-476,-189 -1019,-284 -1635,-284 -511,0 -913,99 -1197,297 -286,199 -428,478 -428,839z"/>
  <path id="5" class="fil1" d="M48154 13988l0 -7141 1596 0 0 4790c1233,-1754 2358,-3350 3379,-4790l1558 0 0 7141 -1596 0 0 -4763 -3402 4763 -1535 0zm1149 -9849l988 -191c194,615 570,924 1129,924 559,0 936,-309 1129,-924l988 191c-88,582 -320,1039 -699,1378 -376,335 -850,505 -1418,505 -570,0 -1046,-170 -1420,-510 -376,-338 -609,-796 -697,-1373z"/>
  <path id="6" class="fil1" d="M56783 5003l0 -483 1923 0 0 483 -503 6100 -904 0 -516 -6100zm65 8985l0 -1731 1799 0 0 1731 -1799 0z"/>
 </g>
</svg>
