<?xml version="1.0" encoding="UTF-8"?>
<!DOCTYPE svg PUBLIC "-//W3C//DTD SVG 1.1//EN" "http://www.w3.org/Graphics/SVG/1.1/DTD/svg11.dtd">
<!-- Creator: CorelDRAW X8 -->
<svg xmlns="http://www.w3.org/2000/svg" xml:space="preserve" width="87.8248mm" height="74.2277mm" version="1.1" style="shape-rendering:geometricPrecision; text-rendering:geometricPrecision; image-rendering:optimizeQuality; fill-rule:evenodd; clip-rule:evenodd"
viewBox="0 0 85126 71947"
 xmlns:xlink="http://www.w3.org/1999/xlink">
 <defs>
  <style type="text/css">
   <![CDATA[
    .fil1 {fill:#DC0000}
    .fil3 {fill:#DC0000;fill-rule:nonzero}
    .fil2 {fill:white;fill-rule:nonzero}
    .fil0 {fill:#DC0000;fill-rule:nonzero;fill-opacity:0.149020}
   ]]>
  </style>
 </defs>
 <g id="Слой_x0020_1">
  <metadata id="CorelCorpID_0Corel-Layer"/>
  <g id="_905348960">
   <path class="fil0" d="M44601 3446l19236 32520 4 -3 21285 35984 -85126 0 21285 -35984 4 3 21274 -35966 2038 3446zm15163 34813l-17201 -29081 -17202 29081 0 9 -17195 29070 68794 0 -17196 -29070 0 -9z"/>
   <path class="fil0" d="M44601 20480l11679 19744 4 -2 13728 23208 -54898 0 13728 -23208 4 2 13717 -23190 2038 3446zm7607 22037l-9645 -16305 -9645 16305 0 10 -9638 16293 38566 0 -9638 -16293 0 -10z"/>
   <g>
    <path class="fil1" d="M20756 40982l0 8058c0,2216 -1813,4029 -4029,4029l-8058 0c-2215,0 -4028,-1813 -4028,-4029l0 -8058c0,-2216 1813,-4028 4028,-4028l8058 0c2216,0 4029,1812 4029,4028z"/>
    <path class="fil2" d="M12968 39917l2544 4408 1 -1 2816 4877 -11260 0 2815 -4877 0 1 2815 -4875 269 467zm2006 4718l-2275 -3941 -2276 3941 0 2 -2274 3939 9099 0 -2274 -3939 0 -2z"/>
    <path class="fil2" d="M12968 42226l1545 2676 0 -1 1816 3145 -7261 0 1816 -3145 0 1 1815 -3143 269 467zm1006 2986l-1275 -2209 -1276 2209 0 2 -1275 2208 5101 0 -1275 -2208 0 -2z"/>
    <g>
     <path class="fil3" d="M4743 23178l0 -11465 9205 0 0 2702 -6027 0 0 1327 2216 0c672,0 1283,77 1837,232 555,156 1040,385 1453,685 412,298 734,688 963,1163 230,478 344,1018 344,1624 0,1171 -398,2089 -1195,2746 -797,658 -1878,986 -3243,986l-5553 0zm3178 -2637l2135 0c477,0 848,-106 1110,-317 260,-210 391,-513 391,-906 0,-363 -131,-652 -396,-865 -262,-213 -628,-320 -1089,-320l-2151 0 0 2408z"/>
     <path id="1" class="fil3" d="M15810 17446c0,-811 158,-1584 475,-2318 316,-732 745,-1365 1288,-1900 543,-532 1198,-958 1965,-1272 765,-314 1584,-472 2454,-472 871,0 1687,155 2452,469 764,311 1414,732 1954,1264 541,530 967,1163 1278,1895 311,734 466,1512 466,2334 0,810 -158,1583 -474,2317 -317,734 -748,1370 -1292,1903 -543,532 -1198,955 -1962,1269 -767,314 -1586,472 -2454,472 -1155,0 -2203,-265 -3148,-794 -941,-530 -1678,-1250 -2208,-2159 -530,-909 -794,-1911 -794,-3008zm3243 0c0,848 278,1575 832,2183 557,609 1259,912 2107,912 860,0 1562,-300 2108,-901 543,-598 816,-1332 816,-2194 0,-849 -278,-1576 -833,-2184 -556,-609 -1263,-912 -2123,-912 -849,0 -1545,300 -2091,901 -543,598 -816,1332 -816,2195z"/>
     <path id="2" class="fil3" d="M28560 23082l216 -2440c191,41 437,63 734,63 150,0 278,-14 385,-44 106,-30 227,-101 355,-213 131,-112 243,-267 333,-469 90,-205 180,-489 273,-852 90,-366 164,-805 218,-1319 58,-515 101,-1151 137,-1910 35,-759 52,-1624 52,-2594l0 -1591 8827 0 0 11465 -3177 0 0 -8681 -2653 0 0 440c0,988 -30,1878 -93,2670 -63,791 -150,1479 -262,2058 -115,578 -257,1083 -434,1515 -175,434 -363,786 -568,1056 -205,273 -442,494 -712,661 -268,169 -541,284 -814,349 -273,63 -578,96 -914,96 -369,0 -735,-30 -1100,-90 -366,-60 -634,-115 -803,-170z"/>
     <path id="3" class="fil3" d="M42105 23178l0 -11465 3177 0 0 3620 1736 0c694,0 1330,82 1909,248 575,164 1080,407 1506,723 426,317 759,727 997,1226 237,497 355,1065 355,1701 0,1220 -415,2183 -1245,2888 -830,707 -1947,1059 -3355,1059l-5080 0zm3177 -2637l1655 0c526,0 939,-117 1231,-355 292,-237 439,-584 439,-1037 0,-410 -147,-737 -445,-980 -295,-243 -699,-363 -1209,-363l-1671 0 0 2735z"/>
     <polygon id="4" class="fil3" points="53125,23178 53125,11713 56302,11713 56302,20394 59561,20394 59561,11713 62739,11713 62739,20394 65998,20394 65998,11713 69175,11713 69175,23178 "/>
     <polygon id="5" class="fil3" points="71198,23178 71198,11713 80406,11713 80406,14415 74343,14415 74343,16152 79829,16152 79829,18657 74343,18657 74343,20475 80485,20475 80485,23178 "/>
     <path class="fil3" d="M4641 32629l0 -5720 2932 0c696,0 1216,169 1559,506 247,243 371,552 371,926 0,601 -296,1031 -886,1290 371,124 653,300 848,525 194,226 291,529 291,913 0,487 -191,869 -572,1146 -383,276 -914,414 -1595,414l-2948 0zm1552 -1250l1219 0c241,0 428,-48 560,-143 132,-94 199,-232 199,-412 0,-162 -66,-290 -195,-384 -129,-94 -323,-140 -580,-140l-1203 0 0 1079zm0 -2199l993 0c499,0 748,-174 748,-523 0,-159 -61,-282 -183,-369 -122,-85 -299,-129 -532,-129l-1026 0 0 1021z"/>
     <path id="1" class="fil3" d="M10286 29769c0,-405 79,-790 237,-1157 158,-365 372,-680 643,-947 271,-266 598,-478 980,-635 382,-157 790,-236 1225,-236 434,0 841,78 1223,235 381,155 705,365 975,630 269,264 482,580 637,945 155,367 233,755 233,1165 0,404 -79,790 -237,1156 -158,366 -373,684 -644,949 -271,266 -598,477 -979,634 -383,156 -792,235 -1225,235 -576,0 -1099,-132 -1570,-396 -470,-264 -838,-624 -1102,-1077 -264,-454 -396,-954 -396,-1501zm1618 0c0,423 139,786 415,1089 278,304 628,455 1052,455 429,0 779,-150 1051,-449 271,-299 407,-665 407,-1095 0,-424 -139,-786 -415,-1090 -278,-304 -631,-455 -1060,-455 -423,0 -771,150 -1043,450 -271,298 -407,664 -407,1095z"/>
     <path id="2" class="fil3" d="M16853 31790l823 -1060c452,459 988,689 1611,689 285,0 502,-53 651,-158 148,-106 223,-245 223,-418 0,-340 -305,-510 -914,-510l-597 0 0 -1193 578 0c274,0 478,-47 611,-139 133,-92 200,-216 200,-372 0,-145 -66,-263 -196,-352 -130,-89 -304,-134 -522,-134 -248,0 -511,51 -789,155 -277,105 -505,235 -683,393l-783 -922c657,-649 1455,-975 2394,-975 629,0 1143,146 1537,436 397,290 594,661 594,1111 0,593 -284,1021 -854,1283 310,107 556,270 737,493 181,222 273,507 273,853 0,515 -206,938 -617,1269 -412,331 -963,496 -1655,496 -418,0 -793,-42 -1125,-128 -332,-86 -606,-192 -820,-319 -214,-128 -440,-294 -677,-498z"/>
     <polygon id="3" class="fil3" points="22496,32629 22496,26909 24172,26909 25537,29123 26903,26909 28583,26909 28583,32629 26998,32629 26998,29345 25537,31584 25505,31584 24048,29362 24048,32629 "/>
     <path id="4" class="fil3" d="M29390 29769c0,-405 79,-790 237,-1157 158,-365 372,-680 643,-947 271,-266 597,-478 980,-635 381,-157 790,-236 1225,-236 434,0 841,78 1223,235 381,155 705,365 975,630 269,264 482,580 637,945 155,367 233,755 233,1165 0,404 -79,790 -237,1156 -158,366 -373,684 -644,949 -271,266 -598,477 -979,634 -383,156 -792,235 -1225,235 -576,0 -1099,-132 -1570,-396 -470,-264 -838,-624 -1102,-1077 -264,-454 -396,-954 -396,-1501zm1618 0c0,423 139,786 415,1089 278,304 628,455 1052,455 429,0 779,-150 1051,-449 271,-299 407,-665 407,-1095 0,-424 -139,-786 -415,-1090 -278,-304 -631,-455 -1060,-455 -423,0 -771,150 -1043,450 -271,298 -407,664 -407,1095z"/>
     <polygon id="5" class="fil3" points="35817,32629 37924,29322 35889,26909 37744,26909 39551,29231 39551,26909 41136,26909 41136,29231 42944,26909 44796,26909 42764,29322 44871,32629 42991,32629 41683,30470 41136,31109 41136,32629 39551,32629 39551,31109 39001,30470 37696,32629 "/>
     <polygon id="6" class="fil3" points="45326,32629 45326,26909 46911,26909 46911,29066 48946,29066 48946,26909 50531,26909 50531,32629 48946,32629 48946,30455 46911,30455 46911,32629 "/>
     <path id="7" class="fil3" d="M51346 29769c0,-405 79,-790 237,-1157 158,-365 371,-680 642,-947 271,-266 598,-478 981,-635 381,-157 790,-236 1224,-236 435,0 842,78 1223,235 382,155 706,365 975,630 270,264 483,580 638,945 155,367 233,755 233,1165 0,404 -79,790 -237,1156 -158,366 -373,684 -644,949 -271,266 -598,477 -980,634 -382,156 -791,235 -1224,235 -576,0 -1099,-132 -1570,-396 -470,-264 -838,-624 -1102,-1077 -264,-454 -396,-954 -396,-1501zm1617 0c0,423 139,786 416,1089 278,304 628,455 1051,455 429,0 779,-150 1052,-449 271,-299 407,-665 407,-1095 0,-424 -139,-786 -415,-1090 -278,-304 -631,-455 -1060,-455 -424,0 -771,150 -1043,450 -271,298 -408,664 -408,1095z"/>
     <path id="8" class="fil3" d="M58132 29769c0,-413 76,-802 227,-1167 152,-367 359,-683 622,-947 262,-266 580,-475 954,-629 375,-154 774,-232 1200,-232 1019,0 1820,399 2401,1197l-1160 903c-354,-446 -775,-670 -1261,-670 -397,0 -723,149 -980,446 -257,297 -385,663 -385,1099 0,438 128,805 385,1100 257,296 583,444 980,444 279,0 516,-58 712,-175 195,-118 389,-292 580,-526l1193 855c-193,263 -399,484 -615,662 -218,178 -491,325 -819,441 -328,116 -694,173 -1099,173 -541,0 -1034,-126 -1480,-381 -449,-253 -803,-609 -1063,-1064 -261,-456 -392,-965 -392,-1529z"/>
     <polygon id="9" class="fil3" points="63983,28298 63983,26909 68992,26909 68992,28298 67276,28298 67276,32629 65691,32629 65691,28298 "/>
     <polygon id="10" class="fil3" points="69684,32629 69684,26909 74278,26909 74278,28257 71253,28257 71253,29123 73991,29123 73991,30373 71253,30373 71253,31280 74317,31280 74317,32629 "/>
     <path id="11" class="fil3" d="M75135 32629l0 -5720 1568 0 0 3219 2214 -3219 1480 0 0 5720 -1569 0 0 -3220 -2212 3220 -1481 0zm1242 -7338l864 -156c120,327 311,491 575,491 146,0 264,-43 354,-126 90,-84 165,-205 224,-365l866 156c-61,396 -218,704 -471,922 -252,219 -578,328 -973,328 -393,0 -716,-109 -970,-328 -251,-218 -408,-526 -469,-922z"/>
    </g>
    <path class="fil3" d="M31248 38526l-6011 0 0 1190 2336 0 0 7306 1339 0 0 -7306 2336 0 0 -1190zm5382 8496l1454 0 -3687 -8886 -3698 8886 1465 0 722 -1821 3023 0 721 1821zm-3263 -3012l1030 -2587 1031 2587 -2061 0zm11564 504c-91,115 -183,218 -286,321 -549,549 -1282,859 -2061,859 -778,0 -1511,-310 -2061,-859 -550,-550 -859,-1283 -859,-2061 0,-779 309,-1512 859,-2061 550,-561 1283,-859 2061,-859 687,0 1328,229 1844,652l0 -1568c-58,-23 -126,-57 -183,-80 -527,-229 -1088,-332 -1661,-332 -572,0 -1133,103 -1649,332 -515,206 -962,515 -1351,904 -389,390 -698,848 -916,1351 -217,527 -332,1088 -332,1661 0,572 115,1133 332,1649 218,515 527,961 916,1351 389,389 836,698 1351,916 516,217 1077,332 1649,332 573,0 1134,-115 1661,-332 240,-103 469,-229 686,-367l0 -1809zm7329 -5988l-1328 0 0 3629 -3390 0 0 -3629 -1328 0 0 8496 1328 0 0 -3664 3390 0 0 3664 1328 0 0 -8496zm8130 8496l-3745 -4409 3115 -4087 -1672 0 -2725 3503 0 -3503 -1328 0 0 8496 1328 0 0 -3848 3366 3848 1661 0zm2450 0l0 -8496 -1328 0 0 8496 1328 0zm3092 -802c0,-435 -367,-801 -802,-801 -446,0 -801,366 -801,801 0,447 355,802 801,802 435,0 802,-355 802,-802zm7912 802l-3744 -4409 3114 -4087 -1672 0 -2725 3503 0 -3503 -1328 0 0 8496 1328 0 0 -3848 3367 3848 1660 0zm6641 -4409l-2931 0 0 1203 1603 0 0 1568c-12,0 -12,0 -12,0 -148,81 -309,138 -469,184 0,0 -11,11 -23,11 -11,0 -34,0 -46,12 -11,0 -23,0 -34,11 -11,0 -23,0 -34,0 -12,11 -35,11 -46,11 -12,12 -12,12 -23,12 -80,11 -172,34 -252,46 -11,0 -11,0 -23,0 -11,0 -34,0 -46,0 -11,0 -23,0 -23,11 -22,0 -34,0 -57,0 -11,0 -23,0 -34,0 -12,0 -23,0 -35,0 -11,0 -34,0 -45,0 -12,12 -23,12 -35,12 -23,0 -57,0 -80,0 -778,0 -1511,-310 -2061,-859 -355,-355 -607,-790 -744,-1271 -57,-206 -92,-424 -103,-641 -12,-58 -12,-103 -12,-149 0,-57 0,-103 12,-161 0,-34 0,-80 0,-126 11,-114 34,-229 57,-343 0,-12 0,-12 11,-23 69,-309 184,-595 355,-870 0,-12 12,-35 23,-46 23,-34 46,-69 69,-103 0,0 11,-12 23,-23 46,-69 91,-137 149,-206 11,0 11,-11 11,-11 46,-58 103,-104 149,-149 149,-161 321,-298 504,-413 23,-11 46,-23 57,-34 447,-275 962,-412 1500,-412 23,0 57,0 80,0 0,0 12,0 23,0 12,0 34,0 46,0 11,0 23,0 34,0 12,0 23,11 35,11 23,0 46,0 68,0 12,0 23,0 35,0 11,12 34,12 46,12 11,0 11,0 23,0 11,0 34,11 45,11 12,0 12,0 23,0 46,12 103,12 149,23 11,12 23,12 23,12 23,0 34,0 46,11 11,0 23,0 34,0 12,11 23,11 34,11 172,46 355,115 527,195l0 0c206,103 401,218 573,366l0 -1568 0 0 0 0 0 0c0,0 0,0 -12,0 -23,-12 -46,-23 -68,-34 -12,0 -12,-12 -12,-12 -458,-206 -939,-321 -1431,-355 0,0 0,0 0,0 -35,-11 -69,-11 -103,-11 0,0 0,0 -12,0 -23,0 -57,0 -91,0 0,0 -12,0 -12,0 -34,0 -69,0 -103,0 0,0 0,0 0,0 -572,0 -1133,103 -1649,332 -515,206 -962,515 -1351,904 -389,390 -698,848 -916,1351 -195,458 -298,951 -332,1443 0,69 0,149 0,218 0,137 11,286 23,423 34,424 149,836 309,1226 218,515 527,961 916,1351 275,286 595,526 939,710 126,80 263,148 412,206 58,23 115,46 172,68 46,12 80,35 126,46 0,0 0,0 11,0 424,149 882,218 1340,218 0,0 0,0 0,0 34,0 69,0 103,0 0,0 12,0 12,0 34,0 68,0 91,0 12,0 12,0 12,0 538,-34 1042,-149 1523,-367 11,-11 11,-11 11,-11 23,-12 57,-23 80,-34 0,0 0,0 0,0 23,-12 46,-23 57,-35 12,0 12,0 23,0 12,-11 12,-11 23,-23 23,0 46,-11 57,-23 12,-11 23,-11 35,-22 23,-12 34,-12 57,-23 12,-12 23,-12 34,-23 12,-12 23,-12 35,-23 23,-12 34,-23 46,-34 23,0 34,-12 45,-23 12,0 23,-12 35,-23 11,0 34,-12 46,-23 11,-12 11,-12 23,-12l0 0c0,0 0,0 0,0l297 -206 0 -2301 0 0 0 -1203z"/>
    <path class="fil3" d="M34382 48712l-246 0 -917 1518 -917 -1518 -242 0 0 2567 194 0 0 -2281 950 1577 33 0 950 -1577 0 2281 195 0 0 -2567zm1441 2608c532,0 962,-415 962,-958 0,-543 -430,-957 -962,-957 -535,0 -964,414 -964,957 0,543 429,958 964,958zm0 -176c-436,0 -777,-345 -777,-782 0,-436 341,-781 777,-781 437,0 775,345 775,781 0,437 -338,782 -775,782zm2201 179c518,0 892,-363 892,-854 0,-503 -367,-859 -851,-859 -253,0 -565,114 -749,400 59,-323 210,-488 569,-649 374,-173 759,-261 822,-613l-147 -84c-51,312 -374,359 -774,550 -583,286 -686,594 -686,1167 0,568 403,942 924,942zm0 -183c-418,0 -726,-297 -726,-719 29,-389 389,-631 745,-631 407,0 686,286 686,679 0,389 -290,671 -705,671zm2649 -1695l-1170 1515 0 -1515 -184 0 0 1834 162 0 1166 -1515 0 1515 187 0 0 -1834 -161 0zm2216 0l-1292 0 0 1064c0,473 -150,624 -432,598l0 172c344,26 616,-128 616,-770l0 -884 924 0 0 1654 184 0 0 -1834zm1291 712l-543 0 0 -712 -183 0 0 1834 726 0c326,0 605,-223 605,-561 0,-337 -279,-561 -605,-561zm0 943l-543 0 0 -763 543 0c231,0 418,146 418,381 0,231 -187,382 -418,382zm2337 -1655l0 829 -1145 0 0 -829 -183 0 0 1834 183 0 0 -829 1145 0 0 829 187 0 0 -1834 -187 0zm1592 1875c532,0 961,-415 961,-958 0,-543 -429,-957 -961,-957 -536,0 -965,414 -965,957 0,543 429,958 965,958zm0 -176c-437,0 -778,-345 -778,-782 0,-436 341,-781 778,-781 436,0 774,345 774,781 0,437 -338,782 -774,782zm2226 -1739c-561,0 -950,418 -950,957 0,554 400,958 965,958 363,0 649,-165 800,-415l-162 -95c-106,194 -334,334 -635,334 -418,0 -733,-272 -777,-686l1662 0c0,-30 3,-59 3,-88 0,-503 -348,-965 -906,-965zm0 176c360,0 675,249 716,697l-1475 0c37,-407 341,-697 759,-697zm3830 -136l-1515 0 0 1834 183 0 0 -1654 1145 0 0 1654 187 0 0 -1834zm1537 -40c-356,0 -638,183 -789,466l0 -426 -183 0 0 2568 183 0 0 -1159c151,282 433,466 789,466 524,0 950,-415 950,-958 0,-543 -426,-957 -950,-957zm-11 1739c-436,0 -778,-345 -778,-782 0,-436 342,-781 778,-781 436,0 778,345 778,781 0,437 -342,782 -778,782zm2759 -1699l-1171 1515 0 -1515 -183 0 0 1834 161 0 1167 -1515 0 1515 187 0 0 -1834 -161 0zm2215 0l-1291 0 0 1064c0,473 -150,624 -433,598l0 172c345,26 616,-128 616,-770l0 -884 925 0 0 1654 183 0 0 -1834zm1405 1875c532,0 961,-415 961,-958 0,-543 -429,-957 -961,-957 -535,0 -965,414 -965,957 0,543 430,958 965,958zm0 -176c-436,0 -778,-345 -778,-782 0,-436 342,-781 778,-781 437,0 774,345 774,781 0,437 -337,782 -774,782zm3320 135l-866 -953 829 -881 -227 0 -774 829 0 -829 -187 0 0 829 -774 -829 -228 0 833 881 -869 953 227 0 811 -902 0 902 187 0 0 -902 811 902 227 0zm1046 -1874c-562,0 -951,418 -951,957 0,554 400,958 965,958 363,0 649,-165 800,-415l-162 -95c-106,194 -333,334 -634,334 -418,0 -734,-272 -778,-686l1662 0c0,-30 4,-59 4,-88 0,-503 -349,-965 -906,-965zm0 176c359,0 674,249 715,697l-1475 0c37,-407 341,-697 760,-697zm2663 -136l0 829 -1145 0 0 -829 -183 0 0 1834 183 0 0 -829 1145 0 0 829 187 0 0 -1834 -187 0zm2105 0l-1170 1515 0 -1515 -183 0 0 1834 161 0 1167 -1515 0 1515 187 0 0 -1834 -162 0zm1552 -40c-561,0 -950,418 -950,957 0,554 400,958 965,958 363,0 649,-165 799,-415l-161 -95c-106,194 -334,334 -635,334 -418,0 -733,-272 -777,-686l1661 0c0,-30 4,-59 4,-88 0,-503 -348,-965 -906,-965zm0 176c360,0 675,249 715,697l-1474 0c36,-407 341,-697 759,-697z"/>
   </g>
  </g>
 </g>
</svg>
